<mxfile host="65bd71144e">
    <diagram id="HIP3nbAZw_EuaXWnEj3U" name="Page-1">
        <mxGraphModel dx="846" dy="563" grid="1" gridSize="10" guides="1" tooltips="1" connect="1" arrows="1" fold="1" page="1" pageScale="1" pageWidth="850" pageHeight="1100" background="#00ffff" math="0" shadow="0">
            <root>
                <mxCell id="0"/>
                <mxCell id="1" parent="0"/>
                <mxCell id="7" value="&lt;font color=&quot;#ff0000&quot; style=&quot;font-size: 24px;&quot;&gt;Convert Fahrenheit to Celsius&lt;/font&gt;" style="swimlane;whiteSpace=wrap;html=1;startSize=50;fillColor=#ffff00;" parent="1" vertex="1">
                    <mxGeometry x="40" y="40" width="760" height="480" as="geometry"/>
                </mxCell>
                <mxCell id="8" value="Formula&lt;br&gt;°C =&amp;nbsp;&lt;span style=&quot;background-color: initial;&quot;&gt;(°F − 32) × 5/9&lt;/span&gt;" style="text;html=1;align=left;verticalAlign=middle;resizable=0;points=[];autosize=1;strokeColor=none;fillColor=none;fontSize=24;fontColor=#000000;" parent="7" vertex="1">
                    <mxGeometry x="30" y="70" width="230" height="70" as="geometry"/>
                </mxCell>
                <mxCell id="12" value="60" style="rounded=1;whiteSpace=wrap;html=1;fontFamily=Helvetica;fontSize=24;fontColor=#000000;fillColor=none;strokeWidth=5;strokeColor=#000000;" parent="7" vertex="1">
                    <mxGeometry x="178" y="242" width="140" height="23" as="geometry"/>
                </mxCell>
                <mxCell id="13" value="Calculate Temperature" style="rounded=1;whiteSpace=wrap;html=1;fontFamily=Helvetica;fontSize=24;fontColor=#000000;fillColor=none;strokeWidth=5;strokeColor=#000000;" parent="7" vertex="1">
                    <mxGeometry x="50" y="310" width="200" height="70" as="geometry"/>
                </mxCell>
                <mxCell id="16" value="" style="shape=image;verticalLabelPosition=bottom;labelBackgroundColor=default;verticalAlign=top;aspect=fixed;imageAspect=0;image=data:image/png,iVBORw0KGgoAAAANSUhEUgAAALoAAAGACAIAAACV+u/ZAAAgAElEQVR4nOx9eYAUxfX/e9U91+6ywHIjN6uooIBRDonyFf1CQPEiiAdJPKJETRQMkqhoIkHjScCo8fwaFX4aPDCaqPHEC8QDFEVBRVnkZuXaZefqeu/3R3XX9Jw7MzuzOxA+2eBMT3dXVdfrV+8uZGb4L0by8BGxRXqyT8Bs6Q60ADK8IQdoJTNES3fgAPYl4H/5YnQAOeEAdzmAHHCAXA4gBxwglwPIAQfI5QBywAFyOYAccIBcDiAHmOkU6QMGqwNIxgHucgA54AC5HEAOOEAuB5ADDpDLAeSAA+RyADngALkcQA44QC4HkAOaLzyKmbUtRxt7Eo7s98aelFaulKNOOLNEnozZbP1gZk0x7meBiERERIgoRLbcrkQeXx4gImYOBoMej0cIYZompBqOOg0AQqHQ7t27d+3axcymabZu3bpNmzY+n09f0pyPovm4CyKuX7/+n//85zfffHPEEUeccsopHTt21EN97bXXnn/++SxjtX7xi18MGzasmJ0tFpj5m2++mTVr1rJlyyoqKi655JILLrjA7/cnnxkMBr/55puFCxc+//zzNTU1oVBIPZxAINC3b99zzjln0qRJ3bt3z/4FK9gAmgdffvllp06dfD6f1+v1eDydO3f+7LPP1E9ENHv2bMwOQogFCxY0W7cLBcVB16xZ06lTJ8Mwqqqq1HMYP368lFKdIB18/vnnP/rRjwKBgGEY6R6CorY9e/ZYlmVZluJGxUYzkcvevXu7d+/u9Xp/97vfLV269KKLLvJ6vRMnTlS//veQy+WXX24YxhlnnLFp06Zly5a1bt3a6/V+9dVX6lfLsqLR6O23315VVWWaphAi83MwTXPo0KFr1qxpNnJppsVow4YNmzZtQsTp06dXVVUNHjz4mWeeWbJkScqTfT5f7969Ic2qjIitWrUqbneLAyJatWoVAFx99dUdO3bs2LHj8OHDX3311ZqamurqamYGgJtuuummm25SkpxCeXl5v379evToUVZW1tDQUFNTs2bNmvr6enX+pk2bTLP5BNBmIpeGhgYi8vv9bdq0EUJ4vV6/319XV5fy5B49enz22Wf6a/KzaLanU1gws5QSAMrKytQRn88HANFoVLGfd99997bbbrMsCwBM0/R4PCeddNLtt99eXV0NrlGvWrXqmmuuef3114nozjvv7NOnT7MNoZkEpbZt2wohIpFITU0NEW3fvn3Xrl1du3bNcEnmJal5ul1YIGKfPn0Q8b777lMP4a233hJC9OjRg5m3b99+8sknRyIRdTIR/e1vf/vHP/5xyCGHCCHcC1P//v2fffbZV155ZeHChaeeemqzjqEZFjxmjkajJ598ssfjOfroo6+88srq6mqv1zt79mz1a4Lscsghh1iWJaWkNGiePhcDy5cvb9OmjcfjGT58eJ8+fUzTPOussxoaGkKh0Jw5cwwHXq/3z3/+czAYtCyrpbsch+bTjOrr6ydMmNCuXbuKioqOHTtOnTq1rq5O/fTfQy5SyjfffHPUqFHV1dVHHnnkjBkzGhoaLMvau3dvr169NLn069cvFApFIpFSI5fms7uUlZU99dRTtbW1tbW13bp1y0Zc5f3O1IuII0eOHDlypPsgEa1YsWL9+vXqqxDi7LPPVmJNqaG5c6Tbt2/fvn37Zm609PHpp5+Cy9h9wQUXtGh30qJZrbpZnhkOh7/4YpUQRjgcVgqClDIcDgcCASHEwQcfrE2Z+w3j+f777/XnDh06dOvWrQU7kwA3jy/FCgxbt24999zzmHnjxo1E1LVrV8Mw9uzZ06pVq/bt27/22mvg9H6/IZc9e/boz23btm3BniQDHTcfM5diAIOUsra2tr6+PhqNGoaxceNGy7IqKiqY2e/3a0V6v6GVhIEwsxCCS6bUgSIU9bnkyAURiai2tnbjxo3t27fv1KmT3+/ftGmTZVlCCGXNLJ1HmQ3cmkXKExCxdevW+mttbS27gj1aHKonRAQluBgxc+fOnWfNmmWapvJHImJdXZ1hGGVlZWVlZdpg1dI9LSS6deuGaBdP2blz59q1a6urq0tkjKUuu1RWVl544YUZWMj+Ry4DBw7UI2Lmv//977Nnz27ZLmloOoYSXIx8Pt9BBx3U0r1obhx99NHt2rVTn4noH//4RzgcznC+nr9mW5dtN3jzNJYlhBDt27c3zcRUXM1OtPekhTqYDzI7v9S76/F4rrrqKn3JunXrfv/737vDEtw3VKZtKWUkElEiRVGhOqB6UkLkYhhGjx49WrVq5X6x3OtOc0eONRfUGCdNmhQIBNQRIrrnnnvuvPNOHUTnBjN/9913EydOvOyyy/bu3ducXS2hCUBEFbqRTBb7n7CSjO7du8+bN8/r9aqvRHTddddNmjRpyZIlP/zwQ0NDQzAYrKur+/777xcsWHDSSSc9//zzjz322PXXXx8Oh5uBx9gosA8qL0gp//znP/v9/kAgUF1dPWbMGB2GSEQqHGS/hxrp+eef716nhBCGYfj9/t69e1dXVyuzgmmayhPp8/latWq1evVqtSoVr2M6MLTlNSM1zsrKyt69e0cikdra2h49erhPULHyBQfHpyW45f9kNA9vi0aj8+bN69at22233RaNRnUnw+FwTU0NxOu0iFhZWblw4cLmUblLSJFm5mAwGIlEVJTdtm3bmq1d9d5EI1HLskgSMQHHpFPDMDwe02N6hFl0Yw8iBgKBQCBw7bXXDhs27Oabb/74449VAAMkZWa1bdv2lFNOmTlzZu/evQ3DKF6vwPWqcHMGMKQEMwshpJSBQOCggw4KhUKWZXXq1ImIiivYMpCkhmBDQ0MDRSkdV0FAYkAAj9dbVu73+f2GEMXWJn0+3+jRo8eOHfvee+/Nnz9/+fLlO3bssCwLEX0+X+fOnY877rgLLrigV69ezSz7Y2YO3AxQzJaZVTyUZrZa4lPnFPIFYiCLdu/eHQwGsxi5AEYEYABAQKSysrLKykphIhctFsc9I5r/qYPKjpDwNJpTCWgZctFilH4/0nWjsEsAETXUNdTV17FkQGh85CwA9NwQIAGDYZrlZWUVrcpAFJ1cssF+Ti5SSq0t63RX9wLp5rGFehaKge3evTtYHxIolKwIKQgGk77qI+6Tuay8rLJNK7urBZ2vA+QSg+KuQgg3lSizgVqVimS0jUQiW7dsBYmGyLSuKZ0jmxsSksfjaVdVZZhGHFHt12hWctG0olYiwzCUFq01Q7tPhSaXUCj0ww8/oNW4YJgTuQCAx2NWVbUzTaOU7J1FRPONUssr7iPQmMGj6Y1Go9GdO3ayBEJSfxnPz2S3dJ8pWAgWMkI7d+xUiWT/DSgiuSi5RH3Wgq0iDu1a0+tRkRZgZq6trZUWAQjXn/2jIg/3+YgI9h8AAmchDVsRa+fOXS2rYDYbimV3cS864AiwRGQYhtYJ1ZlSymIZmgh2/bDbCkuBCG6uBsqYi0IIYAZkIYTH4/H6vIZhMCIDEBNLikYiMX+noq5UiIYie/fsLWtVLsR+LsIUayFwLzS61I9bedaUVDxbU2hvaPu2WhNNhlR8ggEAUIhWrco9HpOIEREESgRwTFJELABU2phlWUZaCx1LoI4dO3r9nv3bFVpEckFERSgAoClGLU/NYI4kSdu21MqoFCwYmNEtM4FAJIBAwO/z+9FhbQjIAOyebmIEQERJMhwKh4JBZjYwlSIk2OPxtOvYbn+NslAo4tjcwooqa+NmLcVrVyEYDIcjEQYkZ/XRQARGKKso85UF0BSMqP4I42lFjQKAmBFFoCyQssyTcxaEI+FIKFKMsZQOCkkuCUSQ8FWzGSFEM6gSe/bsFihiaxDHzGxoGBWtK71+PwjFczj9n2s4AL6Av6y8jO3lxn0OSskIxt69e/dvmbcwoq4SUABAG9kUL5FSKjeHohJNMR6PpyDtpkMkFI1GLMECgBmkq6MICB6vFw1DSeCN3CiB2QjhDQSiUcuyLJc+zgAoQIDEUChCFhue/VZ8aSp30eEz2lkYu7XjDNNqEQCkDJYrIFQH9tbXp7G2MaLwB/xNEUgDTjGfZEjLCodCed+59JHPzCm2oY1X2oIC6Td914b/pvc4M1RzoXDqOWMGj8djACIzMiMDMrAyzmX95/F4PB5PSr6EiMFgMAtjzb6KfBYjpeZoywoAKC6iQxGUYKvPd1NMgbqdCcxsWTKdLd/n8yUaaOOvTXtfBAQEAAIK+P2RSASTzhVCRKJRVmve/oh8yMUwDCWUuC1sWnYxTVP9mkAxzWaQUPXfksEAptdjeExW+nEqIKafaIc4iBlNI970x7YaTgAIQAjFDXBrMeS5GGlnYexGQrgTwVtQQSCidDIsGsoGk/H6xpUkYAAjiVPabaolaz9FPtxFswptqFVrkzqiwlkK3M1cYFmWI5DEVzZAMFSHk1eRHIEMhmlKtzlAK+zMvP+GM+SpSGslSFGJcgapn9y2uBahGyJi4hQOQgaVtcnU1I7ZbrBEuwy0VHRisyGrxUixkIaGBpUzp5Mxd+/eHYlEFLPZtm2bKk2ozy9N70lRZzMpzKHFoHSOH374QVlEpZQbNmxouhUxK3KRUr7++utDhw699957VaqYZVkPPfTQtGnTVIz0lVdeOXXq1HPPPffRRx+FFhVcFBgg9YKDkCrgMmcgA3GSRGMPnDljSE3zIBwOT58+fcqUKcFgcPv27WedddbPfvazY4899l//+ldTbpvVYrR27dorrrhCSqkcs0KIDz74YM6cOa+//nr79u3feeed5cuXv/DCC59++umf//znyZMnlyZfKSySiM72DLT0m2LjiSeeWLx48dtvv+31eh977LF169YtW7bs73//+6xZs8aPH5/3bbMil+rq6nfeeefKK69kZo/Hs2vXrssvv3zgwIGPPvropZdeun79+m7dulVWVh5//PHXXnvtnj172rZtq4UbKeUHH3yQd/9SQq10Rx99tDu/pDSQ6T355ptvtmzZUvB3yev1Dho0SOd6EtGWLVtmzJgxcuTIOXPmTJs2bcWKFUcddZRhGOecc84VV1wRDAZVzbY82sqKXFR+pbbJ/vWvf/V6vRdffPE///nPyy67bOjQodolRER1dXXuYnyhUGjFihV59CwDlGQ9cODAdOTSiKbcdA6Q6QZpG9+4ceOqVasKzn/8fv9RRx3lNqxfddVVxxxzzCWXXHL33XfPmDEjGo22adMGAFQprnA47N49KydkRS46jknxjHXr1o0YMWLUqFEHH3zwiBEjTj/99HXr1oXD4R07dtTU1Lg3tQKA8vLyyy67LI+e5QkGdDKIEqaFMRYlRemflVu8SXsWas2Ine/qkFLIUl933HHHHX/88VmOI28oqfaiiy464YQTKisrL7744vHjx3/xxRfMvHr16rZt21ZUVOR986zIhYhee+21TZs2AcCHH344bty4G2+8cdGiRQ899NC4ceOGDx++cePGhx566P333x8+fLj7jW9uIYYBGJCRWcX0JyrStj0mY6dUwmLsMwDYgnNcNEQSMarLVI5s6gaawQeipIUzzzzzySef9Pv9c+fOnTRp0ujRoxcsWPDEE0/83//935lnnmmaZt7Ou6zsBNFo9NFHH92zZw8i9u3b9yc/+cnHH3/8zDPPDBo06LTTTgsEAps3b37wwQc7d+48adIktQWNffeWIJeGvQ3btmwXSflEDFBWUWF6PQzEuQfVYjyZhesbohEdDIXAytREgHBQz66G2WLCvkoffvXVV5csWXLMMceMHTvWNM01a9Y89thj/fv3nzBhQnl5ed5mjn3ArJShh4ljboxcAuXlHq9XCoLsHla6kwSnIxcG5HhySbTxpnPaFwqNTqg7giBXlETBjsxg5p07dyYcQcTWrVvnUPqFC2B0cV/ciOMpqWEAqK+vD4fDyUGGVVVV+4rpYR8gl2Aw+Mc//jHkCjtSitgdd9zhrl6cAD0rMXsdK+7DGThqpizGuIS6NGbA9JBSLlq0aPHixQmUwcz33HNP+ijgnJEN5eVNnfvAYkREKSv6qR0l4g65FiNd1BNd8qm/otzr9xFITvO8Mia9ugIFGcL1wewWI5URZ+dTpgxSDgQCB7hLwSCEKEsf75gjmB2tKfdL4z5znI9RF3NIfvdiUr/X6y09u2Ju2AfIpYBwopjSMlSXKSXFb67VSCvTTlaA45AuiE+qZLH/kotrDYpLNMsodGRamm3TX5oMAoxnPoWIeClBr37JkYsOgcjmzHTJ1RwfAKctc8xMGfzVAMBpeY+KynT+zYj0FKkCPzJfrZAQ71wiKC1y+frrr996660sH9N5552XklyYGzfdZlgxihSVzcxLly798ssvszx/woQJSu8rKaIpIXJhZtM01RY02Zyf4TlmFmc5sUxHznDKwEAqukt7cyFEeXl5lk14PJ4SXIxKSJHWNRmyPz+RuzAAw976vVs2bTUM031cPXVvRZkZ8FGTo3UFQ6Qh3qrraqxbr4MMM8mmzJxTaZJSIxSFEuIu2Rcb42yKlMYXy3Wi9DkzUWZeiTTfyIPYELFI5cebE6U1gGK/UjFSSacsZ0kJpcKRmxulRS7JUCHK69atS2YJffv2LXZ98wyIy0zJImuRmbdu3VpXV5dwnIjcWx2XOEqdXAAgHA7fc889wWAw4fhf/vKXwll7cwc74VDqCwM0In3z4sWL33jjjWSf0bx585TPqDTlFTeyEnWTnagpD2YlUuQIlS4ZDofd75+SP3w+XwZR10QzeWXxlAWMgM8uE9UEOKJu2BFy40Td7r27pRR1VSRKwvMhIu1fLMijSzmh7uIYTWkl22g61Q81ZzpFPqFqizt1vlBEg4hqj9dcL2S3HKKj41RiRzoHY4GQbsJU6YZithwrtOPuSQGT1bMN7a6vr3/uuee6d+8+cuRIZQ+oq6t76KGHzjjjjN69e3/++efPPvtsmzZtzj777I4dO+bdmwLCPWfoyBasDjfZepB4eRJdZu5POjT9HVOtLFmyZMmSJQBgGMavf/3r+vr6Z599dt26daeffvrRRx/dFHNOVhKWZVkXXHDBlClT3n33Xc1Ub7755pkzZ65Zs6ampmbo0KFt2rR5//33J0+e7O56QUAuuI9kP+e6tnJhOxar2ayrv2TsUaMdzqcHjkVH3UExj4ceemjJkiV1dXUqQWTatGlPPfXUoEGDxowZs2rVqqJzlw0bNvTr10/PECI+88wzb7/9do8ePZh58eLFBx100JQpU84+++xDDz00EonoxZiZI5HIRx99lHf/MmDo0KEpeXujs1JMxCgyWaT97rvvNm/eXPDueTyeY445hl1b/axcufL8888//vjjjzjiCMuyXnrppWXLlvXo0eOBBx5YuHDhEUcckXdbWZFLr169/vSnP51//vmqT1988cWtt9765JNPnnHGGYi4efPm7t27e73eDh06BAKBDRs2VFdX62uJ6L333su7f+lARIMGDUpBLi2jWzDGB2MiYrJb+ttvv12+fHnB2y4rKxsyZIimTiI69NBDFy9ePH/+/EMOOeSWW24hop49ewJA9+7dt27d2pS2spVdtDaEiDNmzOjatevixYt37tz56quvdu3aVZkTpJThcDghjtDv91999dVN6WJKZKhF1ZImNHZ/TLTGjBo16sQTTyxGs26DuMfjeeyxx9RbPWzYsOnTp0spLcsyTTMUCjUlyQhyqsCguei0adPOOussr9fr8XgMw+jXr19NTc2uXbvef//9ysrKrl276q4XHLF+Z1C+SsYL5kYxnkbyY1HTtH79egDYvXs3Inbp0qVXr14vvvgiM3/22WeDBw9uyiiyzWI866yzli9f/tFHHxmGcf311wNANBq95557Ro8efeyxx5599tmjRo2KRqM33nhjJBLROZVpZ7TIUOJn6uNMGSLmsr5/zpckzGuRgIihUOiiiy7avXs3ADz66KPt27f/05/+NGPGjFmzZg0ZMmTChAlNun82khczb9myRe0eGQgE2rVrBwDRaPSHH36orKz0+XxEtHnzZr/f37ZtW1V1rEiPhlMZDF0/AwDU7anbummbSMU4zTK/GfBlCo/KDoIhGgpGwxHdAVt2YQCEbn0OMj1msrSbjGzOyQlKS4pEIps3b27Tpk3btm3VE9u5c2ddXV2XLl3UgpD3/ZtqguAiWHIT7i+lbGhoSOgnM1dUVCT6eBmAob6ufsumrcUlF4BwsEGGVQADQjy5dO/bLSW5BINBtYW6+orO/hqtW7cuks+o4OTYVJ9RMzDYYDA4ffp0t89IPeV7771XFRZIBjcaTddk6JC9LNshoueee+6TTz6pr69XUkXbtm19Pt/WrVvvv//+QCBQjE4WfHZKKDwqHaSUP/zwQ3I/O3TokDLPqL6ufvPGLUaqWqVmmd8I+LjJxcqRIRzcK8NRBBA2q2qEuxBRfX19JBJRG/2iU73csqwuXbq0lJCXK/YBj7RhGHk4FlKLurEwqSZ1Ka6oB0M2ewwjYkoltuDrRVGxD5BLoRHjBfnfIt6+AvneMUEHllKWeMRdSXcuZyAAAHLapUZFLhAUIFbXBgMBxOq9KFLMPt0+PkumxGkFmnOn12yQ0yKR34pSCrKa2+bZ6JnF7kxOKC1yXrNmzeLFiyG76O6f/exnKfIw4kJbSgVKlVuyZMmaNWvKy8uFEKFQKBqNBgIBwzDq6+uT9zE4++yzKysrW6S3GVBa5FJRUXHwwQdncyYi+ny+ND+WFqHof7t06aJ0ItM0hRB79+5VO8zGNpN1wTRNLOYO2/mh5DrUdNTvrt+0YXNKM52nLIB+L2MBZJdoKKgUaYc4Y+ywV3VP4YkLFXVf6zZsJjDRZJ5aanpTackuxQanKrWd772g0TwTFX2ScDAn51FJ0QrsK+SSzAKzlxZbEERU+spOTij1wSghUflX3fTBzK1atUovvpQE1AY+WgTRPiP3QIhov61Nl/xCN8M4Q6HQHXfcUV9fn3D8T3/6Ux7kYkc2JI0jx5skhcq5QMwQX7hWUcw777yzYsUKVa/a/dMtt9xSwNp0qboaa6uJd8tB1E3J//VKXDzXNBEpV0vCca/Xm5LV1++u3/j9ptQe6YBfBLxONXS3fzDLbtvDFwzRYINMtR0jIvbo28PwCPVkFHdUnyORiFKY3U5pRMy7Qn/j3XVNGTr1UZvSVg7cZffu3UII5fgIh8Pbtm0LBALt27dHRCnl5s2bVbhu4b2gaXTmpsgudk0fjjuQGZwYfGuXL3QO29SsNxlkZsMwtGqjds/2eDwJhv+8h9AopJS1tbVt27Y1TTMajW7ZsqWioqKqqqop2lZWoi4RffHFF/3797/zzjsBIBgMjhs3bsCAAf3791+8eHE0Gv3Nb35z2GGHHXrooQsXLgyHw4XdADhdxGETYkR0MKlO+GgcdkEq+09Z+wmA7H+d++qZUBsh62SXBM1ZD6FIoWTRaPSVV17p3r37unXrGhoaJk6cOHDgwMMOO2zJkiVF5y6rVq0644wztEP1iSeeaNeu3erVq+++++677rqLmRcuXPjJJ598+eWXU6dOVekBeXeo6SjSK8v6f6DIheK4EwpFUnpPSrUGufcZdNNNsbF27doZM2ao1hcsWLB+/fovv/zy6aefnjFjRlMSM7Iilz59+ixatOiWW25RYz733HMnTpxYXl6+Y8eOLl26fPrpp7169erVq1e3bt1qa2t37typ4w2U4eGzzz7Lu3/pQEQDBw5Ml0OKmCzM5o6EMpYcK/+CoDPq7aYMQwA6GWLMiEJzQb3h9vr163/44QenhwUjGtM0E1KHgsHgVVdddfnll0+dOpWIPvroo6OPPrpjx46TJ0++9tprQ6GQWtzz6ENW5BIIBPr376/Zqd/vN03zvffee/XVVxctWvTvf/+7srISET0ej9/vDwaD7n5EIpGnn346125lhnpNDz/88NRpaY1cHJ8+7dwx7qsilEw3Urv/MgASk8fjFQKZwTCEYRhEJNiWYHTqODN/+umnS5cuzWqEuaBVq1b9+/fXS7OU8vrrr6+qqho/fvwVV1xRV1fX0NDQuXNnIUSrVq2klKFQSG1slEdbjZNLShv2e++999Of/nTZsmW9e/devnx5TU2NZVmhUKihoaFr165ulltWVnbTTTfl0bMM0LpGuh5nuDY7psPxn1NFWiEzoKqChwJDoTAg+H1+y7KEU7RSK0cAwMzjx48/9dRT1eUFX5L0NEUikWeeeWbr1q3PPfccEZ100kk///nP165dy8wbNmxo1apVUyokNk4uasCvvvrqtm3bAOCTTz7Ztm3b+eefP3LkyPvvv/+ggw4aO3bsrl275s2bt3LlyqFDh7ol0CKt09nEsmeQYDg5qyRtjnxqWiEGBgEoGNgQAhgQwefzWZYlSUL8nuzqIRTbvKt5mM/nW7ZsGRFFo9E+ffq8/PLLUsqJEyc+/vjj8+fPP/3004su6iLi0qVLDz/8cET8/PPPAeDcc88FgGg0umfPnurq6pdeeunxxx/v0aPH7Nmzm6jZFwR2ZHeKOCkEQKfoUzadjJ3JQAIFkS7QwqZpIjBJS6Dp8/ktKyolGaYBLfoEEFGZMyzL+s1vftOnT5+qqqq///3vCxcuPO644y699NIm3TwbPaIF/aLa0JSyAyltGHW76jZv3IqUSCsM7Cnzo9/r2kqtsUGh3bTSd0zTiESiQiAykxU1JEWjUZbS7/MzADOpHnXp3tXj92T/xNyWtCwvaSlky12K3Y9Gkb3/AVkApYr2ZwYWwAiYRSi2fQkCADEjCGGoV4uJ2GuayITEwIyA0UgEhDBNgxlUREvKvqVzlO4rhemg9F2MABAMBmfNmuWOIVLc7oYbbqiqqkp7mXtubCMugFaAswQ7zQnUPMYwDCklSWkieDyeaDjCzEwUiVDsmhTdYVXlJPmn2267rcR9pRqlHh6lLBnbt29PcJUxc8eOHd3yoz6hfufeTRs2AZuu8wEBidlT5gefh3OsTafM/6cXXBMAACAASURBVIaBhiFIEgqU0WgkFPSCMFFYVjQaiaAhHIrkXtW9Pf5EDZ+Idu3a5d7ESx/v0qWLu4pbKaPUuQsiGobRuXPnXC8UEHNEEKMAYGSBaAlgVqH8aLsZtSSjWgQd2a98kCgQiCVZbCAawpSWBYTAHApHyjweMA0PeyzSfoDUO7oiYps2bZIJogXlwjxQ6uQC+b5zyDFyQURByCZUhIJRhLCBYdO0BBhEggGFAIwRl71jqyQEMNCDYBBLBksIBOEhADSZwPJHZZCEFYpyhVcw6urO6dhWOoFmH6IVKDVyyX5lzPyUk+NRCAEZ6r/41L9hfYCgqrINBLyMDChAuBzKDp2xpDJ/mbUnJMKETJKixMRE0Wg0UFZmmub6vtWejl0RZDgS8cistPJc1/0SpKQSIpeUOnPCI9bBAMqHl3aDmiSoben99Xs7bKkNexk8ljTKAQ3tB1I3EsxoSUQUHh8H9yBYFochFBRWxLAsYZERjkCdN9K6TYUV2eMhIwqCQTDIA+TS/Pjmm2+y8aooJ8A555yTZakS5QUUDF5JBkdMRkvtIu7wII/Hy0ySyBQmQQQA0TSQQUgWFiMhStsDzQxgRcTunWZ0b0REA+wRWRd7WLZs2Zo1a7I7FyZOnFhWVlZqFNNUcsn8xuQ0WkQsLy/v1KlTo0QghJBSJqdyxXoVb9XXnWQAEmwBMRvAhvIxIyBJ9nh9AkhGIkZZBQvBzDJqiYBPeA3ay3JPAwpAycgkCCQ1yGDQkBwVYNj2l1jbhJw8AFXHpWvXrlk+k1IjFIXS4i6dO3fu3Llzo+SinXYZT3J9RhAMhCABJQAQo7PJnvqdpGSmcCTqLytXajaFw1xXz4ZBAR94PWCYLCNCEhIjECAICYGoCKnFEQFiPCaN8RCxX79+hx566AFyKRiy9DclRKZldWcABJAMBMDMhlKF7cJPDAKlZXn8fneqgR01RyyDIaO8giM/2M5JJ7aOXD0Q+rKECvLOHRHQEIbdlX0WpUUuxTWHqzlW9AFCfQQGQGYCAhCGYACwLCZCjxcrAIFYSgyFuXWlHXKprMLK2hs/88gM2NhGbPsyrUCpkUtKMPOuXbuSVaRMJd2SpowABAM5MoZASojUZkQAIffugXAYAcEfEIYAYgpHRZtKZGTDwxx1DCyABB6JUrhvkhT9HY+G+oZwNMKOzq5DDtq2bVuaS08ySp1cmHnv3r1z5sxJNp9ff/316WoUJJTnVx8NCYLBYFC5GwAggAGAEEyvPyqlAWRZ0iQGQLKihtdjRSxmEuBRojVijC0ho2CBSX5tZIgZcdx9kPzqa6+++9677rOVE+rmm2/eV3xG2dbVhSwsY0V6Rfx+v6rkm9BchoCjZDOdbdJnMAgIWTLH9jpDA4VgkoBg+gMsCQGFabIlZSTs8fvRsjgSASLFWgQjMhKiUqG10oVOQ6mBeMop48edPM5t+FUPzev15vI8soIOJteTUpAJynY/Iynl22+/XVVVNWjQICnlV1999e9//3vw4MHHH3+8x+Opra198sknu3TpMmbMGL/fX8BdezDNjpf5eUYRQDAgM7kUX8PjsaIR0zA5HAWPabZuLYiJrIY9dYHyAAMQsBVsEEAARMyCmEHEZ5QA6gDgdGEVAgwhDIxbPQvu31U92rNnz8svv7xt27bTTjutW7du4XD4P//5T01NzYQJE7p27dqUurrZipaXX375+PHjn3vuOWZesmTJ+PHj/X7/ZZdddt99923cuHHo0KE7duyYP3/+lClToAhPIRl5xuwxCErsG4WCEI1SNErBBkmWRLYsy6pv8LduTSiYKFRfL6QFUgIxEgMDugbI9trjclG1qI/fsqxzzjnnmWee2b59+zHHHLNx48bf/e538+bNM01z5MiR2dsJUyIr7rJ27VpEPP744xVhPvjgg2PGjLnsssuOOOKISy+9tH379kQ0Y8aM7du3H3XUUVJKzV2KTTcZKCYhOBsdpYaYBYHWbQDUXg+AkQgiiD31jIKYPIEykpaoa+BI2IhGgQhYMkubn3Bc3h3Gp13H1ijVvfiuJHshm/6UEmKsxowZM2nSpGg0euedd9bX1y9cuPCdd97p06fPs88+u2jRosMPPzzvhrLKBKiurv7b3/72i1/8Qk3Pli1bBg0aBADDhg377rvv1q9f37NnT7/f3717d4/Hs2XLll69eulrpZQ1NTV59y8l1Krcq1evTPHSCQkMig0gSKUNs5pV1guJsFVgIssSRLw3xCxJSiEJJQFZzITAgMqC6wpft2/vhnDajKPmH7b/sGvPboZCpngCgBBC7T8DAEoS+s1vfvP+++9fe+21I0aMCAQCUsq+ffsiYs+ePdetW9eUtnLQjDT9CiFUlZtQKOTxeNSeAADAzOFwOKEAdTgcvuWWW5rSxWSolejWW29t27ZtTheyI+GiXjJQeY/Uz7Fol7jmgFTUpZP4muIcdyPpfnjllVfeePMNYRTYthQoC9x5552q89pNO2jQ4NmzZ4/+39EbN2yMhCOK/ZAk09ckXTiHi3Xm84ABA5YtWwYAjz766DHHHNO/f//bbrtt9+7dq1atatWqVfv27d0pwWVlZX/961+b0sWUyE+h4BSbUmXRlnI5ADABkMpdxXhR173CpBVdzpo0qYkbfqSDgQaALUbtrW84/bTTHvn73w875DBg9JreHt16vPjCiyefcsoXq7685JJLmtJQVnlGRHT55Zd/8skniiCmTZv285//fOzYsRs2bLjnnnuGDBlywgknjB8/fs+ePdOnT0/IEUenfkLeWly6pT3dDRnV5LlfYs7ID+JP1Pdn/a/iLQicahO0rGGYwjALrzO7gYB+n++Qfv0mnHmmx+sdM3r0oYcees2111533XXz5s3r0b37hAlnNun+2chZRLRp0yblAVYb1ITD4fXr13fu3FmluxLRd999V1ZW1qVLF0gzkXmqvuloItVmhwDASLt37Nn83RaRmGTEJkHgo/c7rF4JYHG3gyKVrexEJGQBKJhBMiMxEROLKIGUSBKlxTLKVoQsCyNRiEgBKJHrjx5pHTq4wWRGCUAxloLYu3+1xytU0ARAtoQKUBgXgXoyNTU1Uso+vfuoDtRur925c2ev3r1N08T89eisE0f0HmiqQz6fr7q6WjMSIUTv3r0ze/4Ka8TLqBNxgpkOtbeHEkIbki9WerK6SjMYdvLcQIBKFildqCdjC7+OoNWuXbuqdu0wrVUoW2QruySsLxy/BTk4gnAxUn+ZWW0lmPxrri5JZADiDMYmdqq9CAKML/4CxAYzEwsGRn1YF35xTMRpyFFGZVr7GBbZ9YiAAjH/VTSGPOXkZCtZ8ZxkDQ0Nc+bMaWhocLdFRDfccEOKqt0ZYVNDql/ACapCsOVYO4DBsbSoYAZB9uQmkIsePKd5DobHWPTMomUffBBjb4jMZJrmH274g9dfTJkGXf82DaXuYkREv98/ZcqUhNg5KWW68n+IakITzBtkzzKQvRtjbE1hZiRldyE7DAHACbcERgZkZnI0InTMe7G/rPA/o04YNnxY3LQxMLDH5wXYN2Ib9oGkV9M0O3XqlOXJrqmLJxckABMwCmhJEsLFYohBsF2vBQFt/oASkAkImQUzEAETAzFIACSM2YkbJxfn4bWtagOQenu3xscVn5WX7WWFnrd9Jju3ySDHvZNygmOzgfGHXF8ZgJnJMbK4btiyXqJmRKkvRvlBO4pjR9zCRjp+EPP6OMV32RZS0GE/kNLtk04i2u+wf5ILAKRjxMnzmiAIshJiHAlX/8vg5CrGkaK+WsTfMpW2k5mi9hvZpdnw9ddfL126tNG1GRHD4fDkyZMzBqHFi5TqP64IFSXq2mow6UDu2InIQMzALBwVSZERIgsCIucaBFZJKI3h/WUffPXVV1nyoQkTzshV72sGlBa5eDyelPtbJiMQCDT23N2veyzfXXELJE0r7o1aARyjHIC98iC74v+ZkEi5JQWBBYnR3RlAkr1Zjw5aWr1Ih9Iil549e/bs2bPRJ6X9rnmC0me+a6suAwMjOeRlsyLIf81AHDR48OCjBmd9QSkKQ6VFLtmnbOX48sXkEwZHaM1k5bSXLH2KE9gb40Ho2F6yRO4pMSk8Yi2O0iKXlMjJI53OSQ0Idtq863Y6igkcg2+MHECH2jESs7OPCDMhq7RFxeEEZBcxbavlpbjC5IBSJxdmJqKdO3cmH6+qqkrphUEWiYo0IzMxCWQGsnPHkBx7CdvSLjIBK8tKYgwU2qeww1SQgQlYMhpsAFIcTacw6wAz1NfXJ2+7iIhVVVWKjDIQU4mIMqVOLuDsZ+T2GQEAIt50002pJUcGZIznM44flEEQJwc/os0+3PZ9tjPlWQJLFVml1WVM8CRyHJ9KOQpEePnll999993kn2677Tafr7hxMIVCU8lF7aihPqODJvcqBlWWIZfwTcyw67ewy4yBu8oG2j5CRrAJRBUqY3epd8cprQZLwIR2zRh30wBub2PcLwhw1lk/Peusn2Y9kAKA4xPElIrQlMzifMiFmaWUKqhAZ26qEj1NyWEpCJAzkUsauPRmJ6wSgUB/tqkIkEEQEJa6CKImiJkNw0BE9VkRShNf5nwI7Y033vjf//3fk08++Re/+MXu3bs3b958xhlnjBgxYsKECevXr1eda0qfskcGjTrlU3HyDskxzBGovOmYzdbmO8pMZ7uJgIBJuaTtRUoVtWNVU1Nd4G6wxTxxilDuu+++44477thjj73uuusikcibb7554oknHnvssVdffXXKPauzRz4Dmzt37v/8z/8sWrTorbfeevfddx966KH6+vqXX365bdu2N9xwQ1ONIgUCcRzif2SwKSD2k2Lb6kd2rHPMBEBADqHYwXUgmJVPGmPuRUxVU74FEAqF7r///tmzZ8+dO/euu+7auHHjzJkzzzzzzH/961///ve/n3/++abcPJ/FqEOHDmvXrv3qq68sy6qqqnrppZeuueaa1q1bn3LKKbNmzYJ4Md6yrILnGak57t27d/bLcBzpKPuLnmqOOw0AkPUHO1jT9hwRuU7mWPaJfReE9CV7mWH7ttq6uj3p36QcQmfccEe+AkAgEPjwww8R8YsvvgCAhoaGL7/88pe//KXf7z/yyCOXLl06adKkPFpRyIdcBgwYMG/evF27dvn9/nbt2tXV1anaGZWVlQl1Epg5HA7/v//3//LuX0oogfqKK67I0qbuGGkdf2GmcwVy1L6K7fqErFMeXQIyO2WBbAalrb4pp5yBGT7++OPlK5anbz9PcikrK5s6dar+qrLK6+rqpk+f/oc//KGqqkoIEQgEELGysrKuri5B/s0J+ZDLww8/PG/evHHjxo0ePfrpp5/u0aPH6tWrR44cuWHDhuSq62VlZTNnzsyjlQxQ6lhuA46pOCnCDRTHYR0Q7qxM2nanRGAdqdBYfEsKgzEijB4z+idjxxRcTE4YDDM3NDRceOGFgwcPnjp1ajQaRcTt27d36NBh8+bNRx11VFPayme57dChw+LFiz/44IN169Z16dJl0qRJc+fOfeONNx577LFx48Yl7GdUDAgH6fR2Nz+wPT2IqG370lb+mVmFyKFyOrpz5ZmB2F619ORre4yjUceAZP+BUAXw4n8FRCjOJp1xD1mx87POOmvDhg19+vR59NFHQ6HQiSeeePXVV//nP//54osvfvKTnzSlrXy4y5NPPnnttdf+/ve/v+qqqyZPnmwYxt69e2+44YYJEyZcccUVzWN/bLQV93TGFUxgFmwB2wuL0oLsvUNIsR4CYiBAcBJNKBa9ALHlJ48+53NVrgiHw4ZhtG/f/rnnnkPEUaNG3XfffTNnzrzpppvmz58/ZMiQptw8ny0ktMzoZiRS2okRzUAu7Oxx6O6AHkhdbX3N2vVusy6yYLHXiFa0evfFNp9/bFBUHHJYuF1bUNqNJMUwUPEMikLUQhkFi9iyIBrFaASsKFoWhy3DIgawBOw67qTwEUeHPKbghLwjcfCgPh5vi5nLtbqXMBF6A7emTFA+o0q5BBR18zi1SZD+qmSXPEyCbJvgGj9RtQMOZ0JHN1JiCSacmB2Utcw9EMd0VkjGk26BLogFdR/wGQWDwVtvvTUSiegjqgzzNddck642XWYgkPIkA0DChKvFxlGkbdXH+SMAkkiCYxtOaD+Ao5K7xKUkvPjii0uWLInjiESAeMMNN/iLmmdUOOwD5GKa5q9+9Sv3oimlFEJkH5mWAHasKalsvwxAiZqPY51jloQsWNjhmLZJGAHYiAV0pmU4I0aM+NGPfuQ+oopaFKM2XZFQ6uTCzKZpdujQIVlMyXsN5qSQSbYDXBiZmBiYUBnlSDKwU/mQlTE4XtJN7EOG1altm1iSkXsIJe6BcqPUyUU90IR1NxtCiZvTRFcAaymEHcUH7DAXBgCOLTLsmGQSDMP5hLe5yxhiCsa2D6Ak3BzNBkULnHAEnJoNWuqIJRg5/3HMNC6C+W9ECXGXOEtJRv7h9s6nu1XC62vLFMQoiSUJ2wTH4CqE6ShNjEl5iWiXK4wdZ5dLQTgEVVjkbLkuPkqIXBBx7dq1H330UZYmuFNPPTWhDp77DLdEwACEIBAEsaG0WTvc3/4MdlSDRB2xy04WkV0ZVQIzEAERuPyMKaz96fHpJyvXfPVVliePG/eT8vLyUqOYEiIXAJBS7t69u9EHhE5MVqaTEt1CaY47cbh6VQLHNeSsOQQsgQGYmJiYifKsB1RXX79z584svehSUkkRCii1o6X7EAMzV1dXV1dXZ3l+5qeZ6Haz5ZY0t3LsJarSD4HDYIAIWACQWqHAVSazEaTgOz/+8bE//vGxWV1dqighcskgiBSlPU1DCKAqSpGtJDmxUcA6hIoZmQ1ABBSxdYxTKOUAjsxcWryhKdBTUELkAqkopoC0wsxq+olJ2EqPEnZZqERoJ6QSmJEcrzMDMgGTIGZJgu3yLtKOabezkFyQSawt2x6W2OJjQ3lg1NSUFrmkBBF9//33brpRxtAePXpkbw/leKhDEDPv2lMsWBBLwcjaEkMALIAsh9gc4VPHSCQgfSzMDz/s2LNnj7tPxIyIvXr1EqIkKcXxaoGzXeo+QC6hUGju3LnBYDDh+C233JIcjaWRYKZzPiERxe16ZZ/rrCyJN7HFGtvsooQbTp0c0iheeeWVN9940xWQB8SEgH+9+69+f+nuZ+S2M+0D5FJWVnbrrbe6j6jeZ6jWkdMK5lCKjmcBFxNybHSsIu3QiZNJe7MMv02cOPHMM8+MOwUBAHz7gs9ICJGnZmTrl0ThcNjj8RiGQUShUAgRfT5fButZHlC3SqAMjN/YKUUPIdFM5+q5Ok6urasc2VSpzXZwFDnKukM0QMhk6MBcfUvlnmYn2AqU4cYdUmg3bZrCNFNq0THml25EuUJKGYlEVLVHIopGo6FQqLKyktMEfiTLiLqmv44rQsT8nQArVqwYOXLk6tWrmXnRokWjRo064YQTCh7FDakiOCGjFu3YWlP+pLVhmzpiFZd1ZB0zEghSCSIg2E4xQWZVQxUTnQCxiAUtPrcgmNmyrEceeeSEE05QPPLDDz8cM2bMqFGjbrzxxuQ9CpNBRCqWSlGJXozylF2Yedu2bSeffPLdd9/dv3//b7/99pe//OVbb70lpRw7duzEiRPTGlsLBD1baYkmWY11TajtEWA3e4kvNga2PVcVLkRA1M+MOe7stM2n7nYzWN5UxeH58+frCKGpU6eeffbZU6ZMOeKII/r163fuuedmuFxThuIuCYEAeXKXqVOndu7cecuWLdu2bVu9enVFRcUhhxxy1FFH9ezZ87XXXtPTyUWDlFJzy3TDdkEvEAQYBvYAGICkPYwJD8tZbRgUYZDaoAaYYsluuT6xbC5sygPRd0DEk08++YknngCAcDgcCoVWrlw5ZcoUv98/ePDgDz/8MHMHdIwmOETjTkvNh7u8+eabb7311rRp01auXLlgwYIrr7wSnODLysrK2tpa9zsUDocfeOCBPFrJANX7X/3qV+mX4WT2oh4BMVjAJmCEWSgSQADBAARIbG/T6NQkA2ZmAiRkCUysgqQw5irArJiNjbfffnvlypVNGnkqlJWVXXjhhTr/mZmHDRv27bffAoDP59u6davf71dCTGVlZUIhCzeUqsyOFqgFRPds5kMuH3300dChQ3/7298yc9euXYPBoGVZdXV1FRUVW7Zs6du3L7u4rhDikEMOyaOVRpETY3ckFkbJktWuio6Yo8pxOzEtjmALTug/AyEwMLGwEwYAhV3SBQkAmETjyhgzt2/fvhiPwuv1uh9Fgh6gdgirra2tqqratm3bEUccoc90LzfsrEFCCMVgNPW438l8yGXYsGEPPPDAqlWr3n777bZt244bN27q1KkvvvhiKBSqr68fMWKE+2SPxzNmzJg8WskbarYTSEnJragmmGzRlV1xB8xxfkVbp7YdTboIg8NOCAxim7tkR7RENGDAgAEDBhRsnK47a/pQE1xfX79p0yYiqqmp6dq163HHHXf99ddfdtllH3300W9/+1t9laIJcBZBFQFtGIb+CknvZD6yy/Dhw2+//fYbb7xx5cqVzz33XMeOHZctW/bKK6+8++67CxcuTBeJXgpIjGJJxRE02UCsYIcSkuLONnLcUVEt1imz7JoInaGnGiKiDz744PHHHx87duytt966bdu2e++91+/3/+EPf3jwwQdHjBihqUHzD/UBHOOKXtTcxXucJ5a71JZcAggcbsbxRUR0P4oE9811l3Zt3fPd19/F5xkZZIb9kfKK1xZWffKeRabvyP6yXRd7JCwNIpQSohEiSVIalsRoFCNRiEbICgvLolCYolERlYIYEAlh9wnjdw0ZRsIAJCkAXUrDoT86xNdyVtoEcdUNNR36oSlJVn1V0fL6SMLqpj83Kc/IvUZikjkkD0IsIOI5BysZg4GZCNPy1Ng6pIeh6oo5oQtqcdIGG1ZqdzbeZ/VONwPrTVYY9TQlh8drf5B7DVJ3SNnPPMkl4YOCcl26bTvctNJW6j5Syg0bNrifgrIj9e7dW29Y3UiHGSQAAAEDkUzYtpfZju7WIblAxETAUpU+BAKWhCQRVAUyV2kY1FKOWx1P0Qciqq2traurS3hoiNizZ88CVt1KvlU6AnWvO4q1qFEYhqGYTfIlBfMZacrQ4pKm0yYiGo0+88wzyebI6dOnZ3kHBLvwis0YiDBNv9COWGBgUmY6BCAEJcGQsxFS6gsBEJIL1tkQQixfvnzFihUJlzPzjBkzmqFIm9oQKqEhtfQo+lDeG7WWpetPYchF8xLDMNxU0kTWAgCIGAgEtDzfVKhlRe8xAwDAAtQOacTKAMMAKgZKqEJ3qCzArAQ9TksxCiL9Cjx27NixY8cWZiA5Qpna3JKsW6JQE6cpJsNyWYDEEdWDBEFJa2jkoOkNZYmUo0W7FB2r5CLVcVCl6FxzjwACEAEYBYMAFIAAQiUCcIxKkmiCXci+V0UCJ5G1FhKSJwIdD0c2q0FTuYvqkNq0XhGKIlK33tjEJvLrVXy4CyOxdGIqmSwkiWQXKBTMwCokzvYd2/QkkA0BFgMzCGHE6Co5LgaESzxucSuCWk2U/OEWKMGRBRPWGk0oja4GhVmMVPNaK9OKnGVZugdNX5hyQNIbrqQKu+APAzMBSQAWRAixgFwgApK2m1FtGA2AkgEEAAJJUHwiFQfJO2yq4NC04pZCNEGogJOE6chydgocHuW2uKie5aQcRSKRbDzs6v6tW7fOlXXZm3A68Qq2akOsFxpWfEIpS8wYDQMgCBSK2IidKBldBJHZRZyYglBtMHNDQ4NlWVn2uby8XD29/NgzujZvVtCLkVZd87hzYcjFLbJoeUp/zv4+H3744eOPPw6N2WzUs7j99tuzL9jhfjCs80TQ/smxtzACAwIJRIvBspjIUPUYCJFUghEiqJhMZu0lQEi3BGl1nYheeOGFN998M8sOz549u3379lmenA5ugtCrkpZsWoBcEvQuvTSyE3GX0xo0ZMiQwYMHN0philwybpWWCMFas1H2MtuxDFoSsb8AKfmXmIgRBcgoWFGDgKRUAwREEdtGljPylLg+n3766aeddlqW74/P53NbXXOFklrAVUnJvSrpCcoV+Qdf6g+mabqdDkoPSjYjZgOPx5Ol5S37TgKAZACSkhGZDclRFRrnOAeR1TJDABKQmEFIRkJDKdcskRisqCIysK26CCiBPYAh4ABAkNnudrpJEEKk2/g6A/IQ+NjxASm1w2011RprBrttZuTPXbT2xfG5BeAQTbPKttlB58ojJ/AEZbAlLcYgEBMxE0hiYpK2e8k5XxWTMgAks8EgGT2QUSdKbdwrjtqotWgtGLhpRbGZ5uMuGoqE3Q3rzwWnlUI9bnSkCcfpEwtdACeNBFg5Adj517I3BHD3BxxtyhaRnePpe5Q8BC1DFJBu9OqjLWFaiNQvdn60AnmTi7bCaaanbYUFt8hFIpFFixZFIhH9TNWwzzzzzFyDglV+gEeqMMy0ZynXkLPtq1KE4sKmGN3EEmfkyaAZLV++fPXq1QnHo9HoeeedV8B6Y9pZmBCerUVMN93kipzJJTkYB+L1Z8hXSUsJNTaPx5MwvASulnhR+sQRImawN2xhV2S/qpKqNkxDtpmPE2aprL1qAQJkkOjyz6k7p90MINa0ECIh8g0APB5PYZckraIqtUPPlH6AGVxCjSJ/jzQzh0Ih0zQ9Ho8yKgBAWVlZfv3IAI/HM378+OwLscZZQpJ+YnJIw1lGhD6fHFs+kJ3x6uSLKAsckkREwYJsrTuuHU0x7oNuQhg4cOCgQYOSiaMYEkw0Gq2vr6+srHSvdIrEm+LOzJkj6VVw165dkyZNeu6554jo9ddf/+lPfzpx4sTnn3++sIuRGm1Ri/bacNRpVoKLyr1XfySZpB0z40ayNyD9vCfEvBUPRNTQ0DB58uTBgwdPmDBB1cvRaOLNzCQ14wAAIABJREFU81nAVDLBzJkz165dG4lEvv/++3PPPffGG2+88cYb58yZkyHWPD9gemS4ijlpZlMsXpx0pl0CU4OUO4ndSSOaMaW6XUFHkSuUYHv55ZeXl5cvWbIkHA7fddddCa035f5ZkQs7jmUtqSxcuHDdunWjRo3y+Xxffvml1+vt37//4MGDDcNYunRpUzqUJfScZQVkXVxMsWT3pRjHFLSxV32JpUynIo9UfUrTrYw/FhKWZX3wwQejR4/u3LnzH//4xwULFhSQ3zfO5NmRsfWHzz///KmnnnrwwQf/+te/RqNRFSGmsqM9Hs+mTZvci2VDQ8O8efOgoCs0IlqWNW3atPLy8qwvMjQvUezDlmLZrmIXC2uI7Resw+QYQCUiOW9n/KTbzMb1/2Qw86uvvrp8+fIcx9o4ysrKfv3rX7sl2WAw2KpVK0Ts2LFjbW1tAWm0EXJRL4RhGMo3puxvd9555+bNm6dMmfL1118vXLjw/PPPtywrHA77/f7NmzcnpNL4fD61PVcBO61k/lyUTwZ2yMVOenUEVWW1cxagWEUxituxEzkm20BKPkPsIsfUGDx4cJ8+fXIaaTZI9i0HAgG18/batWu7detWwFC9TOTCTvSvDhNXR+bOndvQ0EBE06dPHzJkyMSJE+fOnfvUU09ZlhUKhX70ox+xS9M2TbNv376F6q7uGOejq9vii95DUTj+Z7CtcOwK1lYNOf8y25vVOHdKRmZFGhE7dOjQoUOHYki77geuFMmHH3744IMPvvLKK6+44oq8nlVqpCUXbUHRBTi04FJVVVVVVUVEJ5xwQr9+/bp16/byyy//5S9/AYD777+/UE6fDMhCZON4LcX+mkJyAXBsK0rOZX12rOJL7IN9szz4ZFF1IvfNhRAzZ878y1/+csstt5x77rk/+9nPCth0jFwSUiCJSPkO2XE6aGaju/WrX/1KnXz00Uc/8cQT7JgOm0FdzAxOkVvIroL+tnlEa00CmBgE2Ht1qkA7ZGYmtGvpOvsHqzu5nNha5NEUmmEXiWYAIpaXl1933XXQiDEzH9jk4nYrgGOC1Flu6QwGCQcxfj+qAiLdmN0dcH9Oo4EwgwSWzMQsWQfRxTfkLEbsbBxNjluAtaDjhFDFBGHbA4UISRW/E26eYRSFes3c3Lewr66pb6pH4o51Uh+0ElgMU0GjsCxL7WaecLx79+65hgSwoxknHrS5jLPFUUxrdlYpjlUZU0JP0p3VSp2JsWzfvn337t0JFIOIvXv3bobEkYIgthihqwKMWoN0HELzk4gGEYVCoYULFyYEZSLitGnTco4gUTVdMH7HIttVyI5Mq4nGZXSxS0fZV4gMaUrx0CsUEX344Ycpy6tcc801+x65sCtsRUX/aopp2cH4/f6rr766UMtcvKhrq9Yxc4lWiZKDDYiJ4hkDAIEAkJhYVSnu1dIUky7PqMVFvewRRy4JArY2urRgrJMWmwrzTJ00RIca0FlqGACYlIDiCCRsyyvKDMNMyDZXYUBJFqDaO9hiEoSEIAgYWLorsepP7pSwfRdxijQ526fqNQhcW7i2FAr4iAWDILaF1wS7nGrLtscwEEtiIG2bcagHAEDZ+SQAE4CwuUs6P3RRBtJSiIm6kCS+KIppNlrRL32jopJW7zPyvBTzZzAIAmIWwJaeepVJwrG0VltYIds/rRzUAMBa3VALkSvEyvEl7OeIE3XBIRR0Mgya84VAxGg06o6aSwc1o5ljaxKciO7cDuHoRrHoJgAEFrZhzvUfRyey1ytyXZa8R1ZjfY5EIsn6XTr4/f5CrsIFgpkyBZI5Uxp+8bB06dIHH3ywUTlJ0fG9996b5WavDIgggT1KCnHvkOaQhCPMqKAWlW0EWpRRFhpVog44fZmFDJBSPvHEE6+//nqW0z937lxVVq6kYKZMlWvONUiDmQcNGjR79mxo7JVSc5tDnhEjowXss31G+ia2X9C2szkirrbLEYDaM9o5qE1TqOQXtMMynZukM8QBgBDi5JNPHjVqVJZdVoFw2Q6wuWCCS8Jt6c5ARUWF8rw3embutm1HqWFWWWfsyl+0Hc6OLq09ZKi34XN2q0HHhxSPxjuMiO3atcv+IbsluSwvaQbEibotC3TVns/m5Ka0pZmMkxJgz41QriFiUKZbuzIqg+20ZlB8htSlAlhA5rQCV4dz6nMpzEgyRB6ZzMVDsc3HdowCxTMItjmKY+xX2wKwTTTKGEMxcaVRGbcU57lAMNnJdWvpnqQGM4fD4QULFoTDYX1QKfwXXXRR1k4AtqPptPNLW+nsn9mlBWnfskNVSjR2nAMIYLg80kqHRmxE1GPmd9555/PPP3cfVO/qxRdfrMvhZDecFoPpLhRTmt1l5vbt26uKQwroJOdlewtU0XS2gsxACISsGIYynyiXEDlBLjHK0bEQ6BKYhA6o0j4m15NLWW9MVRjp2LFjwkN2S8clOwUaJqYqpZoZzKy2y1EhusplrVyAgUCgsANGRK/XO378+JQ/ZbowxQGyNSMilZWoY6CcZUrtpkcY25TcjoABtTa5ljCtgKP2CsUHwyTjyCOPPPLIIxMOJtSYLCzFKEKMRCKmaao1REqpwmSV5ptrW/lkzEaj0TvuuGPAgAEDBw58/fXXLcv6z3/+M2jQoEGDBs2fP9/NBgoCVR7RjayIG9H153y1wWqLRbb3KlK1UAkhnwgNlwLN6o4p06R1lcCEJpJjiQooGDDz2rVrhw8fvmTJEpV/dO655w4YMGD8+PG7d+9WCUA53TAWh5v9NWqjkYULF06dOvXqq6/esGHDhRdeeMcdd8yZM+e6665zb5rILuTUrUaR+z2FXVvONvYDuqbVjtO1lSB3p+M+Arn+8upwln3O+3FxPN55551x48bV1NQo3n/llVcahvHCCy/U19c/8MADeXCynFPrmPmwww576aWXBg0a1L17dyHEl19+KYQYNWrUuHHjqqqqdJ6Re0lmVwnMgsC9yU5KqFB+159EVXSOdVyL839HBolLWWXXF7dVJl+wU2JfD4FdTScjp6cBrvfHfXm7du0eeeQRnX7wwQcfnHbaaYcffvj06dOffvrpPFY9M49r/H5/165da2trp02bNmvWrL179wKAypTu0KHDhg0b3M8oGAzOmTMHCir2ExEiTp06tVWrVjldaCvSjMwCYhWkBDMiCCe7Xgkx6rkTEKFTvyOziU0nl6SkLGZ++eWXV6xYUXBh1u/3T506VQdZh0Kh+++/37KsyZMnH3zwwe4zg8FgmzZtAKBHjx5btmzJo608U+o3b948duzY3/72tz/96U9fe+01IgqHw4ZhbNmyRdOyei4+n+/kk0+GImiJ+Re5iM2qDm9x9GRSFhdAZiZWG9rYbqZMTmeOydbOLo8JEEIcccQRnTt3Lrj1XJeMBCfptaqqKhqNCiHUO6w4WTQaLSsr27FjBwCsXr26W7duebSVM7kg4qZNmyZNmtS2bdtAILBo0SK158lTTz0lpWxoaFBftTdVCDFo0CAoCaOCS1ZxVGVbnXFoJeGCmNSiOJOjuicKs+6hpVmzmPmggw7q1q1bMZ6DXpdVSbPJkyfrn1atWhWJRGpqaurr60888cT58+d369bt5ptvvvTSSyH3qk35cJc33nijvLwcEZ988klEHDt27FNPPTV79mxEvOuuuxISR0qASgBUfC75QIu0rshtAHC5pO3vFAucY23wRdtfDay0cUREVdcbHL8CChAp85CaJ945wfcXDodnzpzZrVu3Z599tlOnTjfddNM111wzc+bM0aNH55d/lHMeimJu7v6pVzBlvfkWwc4tu7/+4uv47akY0AIqb/OPB9q986ohPeL4wbJLTyYQUWlRVEQjaFkQiYqoxVYUwlGORDgSgkgEQkERjlIoBNGoYEIGQpACdpw5cc+JZ1tmENmjkpKclnjAiCP8gZyrFhYDFL/zlHuu86se0qQNanTDEL+1UmFpRZFjAsfi/Ly1DEKyMrE4viJC2+giyd6MhhgkAiEQgURgYIlAgCBULxAIwSOJEbOPoUunteahzWaPgrP5fGSXlA0XKT5G6VYrV65MMChJKYcNG5aztMssCJy6hKyVZ7BNL86LaMdy23ELymKrCryoxSmPAhjM/M0332zdujXhICIOHz68SE8vYbKaTjHFr8rUNChG8tZbb7nzjBBRSjlkyJCUlzgWiFSPhnTx5djJKpzfEUCctHttiWG9ORYTsYrRzcOKRkRr1qxxF+xQ/TQM45hjjtn38oxaEAnyU8JLUF5e/rvf/S7re4Hj7omX+RFVDByzXeXQ3aZWf5wFyqm3wJoNKVsN6W2ucoVpmqeccsopp5yS+6UlhJIglwJDz33yL0DKTyScmAR1PFb/xyEFASAdFwDqGyo6TllU878D+yG5ZAxfUtEL9mfnQDyf0aVTOUZEDvsp0aigZsN+SC6NQcVUkiOEkNqJXH/F2FdilvpfZaRTirRb1MW0vGw/RMuHc7uRqxEorzZQpzHGtas5isNsWFV8IRLAyITMSIRs/wGoDfeU9yDGeDLEZeYxuuZ4ILmgtLjLihUrnnzyyUafkTrhD3/4Q/b7GcWuVYqwio5CFnZVOVumtVUhx1ntlKeTQJJZOgZdAAACQA6iVDZc6cSJx6W6JWDRokXvvfdeltrs73//+3bt2pWGTTyG0iKXvn37XnTRRdRYVKV6iPlWCEdgRrXRFTMwCSfESWeHOFqSbcrTsQEIqCOuGBAxAhRISJHMgOHDhx922GFZ9rKiogKdnULyGmZRUFrk0rp169atWxe7FWVlceIN1OrjxOM6yWnoDh5hJlBZ8+ysP8CAwqa02LX23dOgS5cuXbp0ybGrJUQrUGrk0jxQc4D2hvOuCFt2jHixKkCxq2wzHWvCEMhGgjsEALLJOcqpryWFkiCXDPyWXKXCs78qHZRpVlpsqFAnZ58I2zrnKMsMLBiQQTkM7Bq7LmEWGYiJGdG9IXCmhm0JCd1+PafluDDi0kZJkEtmRCKRF154IVmgGT9+fC5VuwHAzkUU9uZ6Solx76rIqENxlagrGe2AB9COBXRy2NjeME1DJQWkVjaZ+eOPP/527bcoYnYfIikM44wzzvB694GJgAKSS5GEMuUkY+bkBIO8w9IcJ4At1Tp0A8wgGMh2FYH2AyABuJyRqWFHZmJqvQhBCCQiS1rgcpUiYiQUEs3FW7Q8lneESWF2qYeiBTAgot/vV2Xis74kzfHkQ9ps6yjS4JQGAmJksIUVlStNTkxdnF0uZWMp6BgRhg0bMmxYardokaBi4PUue0IItRE85lthozBmulWrVo0bN+7444+fN2+eZVktbVxK/epgzFlISmYAdmpYckxdUrwkFp5v13Zht28hw/haeuxx+PbbbydOnDhixIirr74aAPbs2TNlypQf//jHF1544e7du/O4YQHIZe/evaeeeurYsWNvvvnmuXPnrlu3rmVNBaptA9H9pwonCwJBLNgiAGQJiEjKoMKCAJkIJLFktv+FmJKkzL1SmeyQG8/maim60XQupbzooouGDBly1113LViwYM2aNdddd93OnTsffvjhL7744pFHHtH2pOzRVHJh5q+++mrHjh3nnHPOsGHDRo0a9fDDDyd0gouDtH1KyVpU6rItiEhSljlysQtlzNXFf2w+ExsC6D9wt57DA3TfI81fIR+FCqa+6qqrBg4cWFZWFolE3nnnnYkTJx566KHXXXfdk08+mX3PNQog6gaDQa/X6/V6TdOsqqqqqanR3IWZ9+7d+7e//a3prbih5KTf/OY3ue70GgMi2yuQHciJAMwS2THuaoHGNZPq0nhzTLaQkl977bWVK1dmZL352Gz8fv8ll1yid+4IBoP33nsvEZ133nmdOnUCgLvuuqtjx46HH354KBRSeUbdu3dvvjyjBFRUVITD4UgkAgBbtmyprq52/+rxeFTiSAGBiNFoNLclj7VA45hZbPucTQcxanCLr5pummwwY+bu3btn7HOeARJer1fLrexoPezs5HD33Xe/+OKLCxcuBAC/379jxw5m/uabbzp27JhHWwUgl759+3bu3HnhwoUDBgx49913Z82axS6l2uv1nnTSSU1vJQGZFqOUEILBUsELBGw4ln6haiwQI5EtAdvkQezkumrDr9KGcyx5qdsXh/brd9ihh2Y6KY/76ksdB5Pf7582bRozSykfeeSRm2666Y9//OMnn3xy1FFHjRw58qmnnjrkkENuvvnmiy++OI9WCkAufr//lVdeOe+88+67775rr722R48e7jE0/f7J4JxtPAggQDACAUm1sa+WFJCZidRG4vT/2/vSKEmu6szvvheRS2XtS+/qllpbC8kSEgNYNMKIkUayfNjGeMY/BD5iGxAYjzWAR2OfM2OfOTIY4zNmk62DBw82OjaMEQZsMzPm2AYjWWYToLWl1tLq7lJXdVXXklWZEfHuvfPjvYjMyqpeqrq6ycJ9FadVuUVERnx5312+e6+K+NE0IgqFNYWxQmTMyKhOTqrKGrSAydPVJzvPtUtxTbz2nZmZ+eQnP7lt27Z77rmHiN7znvfcddddv/qrv3rrrbdef/31b33rW/2bdTU1FacLF6/6tm/f7ktfS6VSN7REXEmK0Jz4YP+S9gv5v+KbLvsezz01HarhmcMuaQCggUFTq/HkpIhI1wftrbWjo6P333+/p8ETkS+Avfvuu9v7u6xW1gEu/sBnY9TzaYsvoj/RG4j8LwDGwFDJEY+NSJqlydE4ilQF4m2CtRz9pOvnOoLQ/2g7XAGvSE6nsdkGuMfM/Pjjjy9/8tJLL11Fa90gSxVL69mchUAAESoVWxtxU0d5ZgY9Vbtp1CSJEggGgCFjzFqu9fj4C1NTU+1YY2Zj7Z5L99ioO1Vyp2wAuKRp+id/8if1er14xnei//CHP7xquChUJLRcDuJrA4LvTAoIbDk2UYmiKJmYMAsLcf9AZfMoMoc4ovPPY8AC5XK5ERqlKk7SyiPIA/ff/41vfrNdyRhjFPjQhz4UxWvtJnEK0uEWnI5BuQHgUqlUfvM3f7PdJPLpj7Wsvr6VnLa6arRY/h4uAivAfF3qdZqfjcY2ybFpHh83g4OIrIgwTJ4VK1hRBCJzCn7w6173ute+7nVt/IVw6LV3HjnrsgHgQkQdWmT1nlHxSUDVKoqBMh1kFd+ETNlpmpItm54aAVn9oJk6ZkcHATWTk7zYNEBbVSUVnz2xxHG04lu63m5uycZYMjtkzeqUiiqknCipS15VBZyKI6glly7y9DTIRJs3uSTRyWkCzJYxS8AJ06jHPbn25opt2waS7tIuK96D5eAo3nYi3BznblKx+viC+dCXBYCBQKASRbavj+I4ai5m4+NoztvaYGXTmHvhCB06YmKLJAW0aA1U5DtaddaBnHeKX/p4Z991vG50FVx8IPJU7DI64bhi5OvC8tfynav6LjVen0hrgBqB7NhmEtFGg2Dj4eHs2BSPHzRDm6ORTXzogEmdQpm4UFT5sQrGd3vZ0ZJTkNykPuFlEAAgMRSdqwQ4iTz00EP33nvvqfSYIKLf+I3fWEPZQOA4hb/DfSXPfjJEvb2IYkwewdGjQjC1qq1U08bhkjsiANJUPHGTwnhgWoqI43Dpgnz5y1/+xje+cZKgTbCA5M47f314eLirsIKuggsRXXHFFXfeeefy51d8/wmIuko46a94haMMDlMUY3GR5+chrI1FtmTiGErZzLQRDSVsx6/mWA6X9tzkDTfc8Mq9e09mrXjtokNDQ92GFXQVXFS1VCqNjIx0PL/aq7bq7KPXMaKYn8PAICKLclnn54TIWqPCEEcZUzvPpRXUW4VUq9WeanX5p5YWtQXt0nU1IwC6Ci4n5huvCgTHe3MwcmmJ6lFjtL+moliYN9NHTa2PRoakaqNUjGQ8PW3T1CecjF/KKLjfq8KxKgyt7Gvn66O27W8tjeOOJ+u4qy6Cy7rJCYElIiAtuvqpicxQTQGwo8iKzurMNPVU47gMl6ZTE3Z83E+UIA04Yb8e8cq9/08kJ6lJ7MLFp1O6HS6qmmXZt7/97fZmY/75vXv3rsimOwFYfMyfkNcNEUwpImtkelqTFL01K+oW5mixbvr7AFAz1YyLz6oPClNrqWh5z7RymK49771v375Dhw7p0u69Cn31q18dReeaja2HqKpzbv/+/R1wAXDttdeuYW+qTIhikQSAotpTTRQuzeK+mjZTNz9nh4ZlakqOTEdDA7JpizZTOTIeGsAXNdIr7tyrj9DojkI3oRxWqnr06NFnnn6mrRW8iqohkle9aml5W/fKWuBygmDauscJfAbg1ltvXUNP1JWfVgWZSNCEAGDHiOJobETm57OjR0v9/Wqt8oSpL2TNRdNXI3bOf6/2syoc3pYvZNrCPdRpqBIM0SuuvfYVr3jF8hOiNeW3T0U64pkFzXTNZWlrSQI45x588ME3vvGNN9xwwz333OOcO3z48G233XbTTTd99KMfzbJsDfs8nhBRMcBouRz3U/m/7Vtu05ArleojfbZ/wJR7molTgmHSTG3/IJWrVF8wSWqVaX5ODh7IFucJQmCFUKiWVZ94cgaRwBnYU2FkE3yBdOfW9uS6y9TU1Lve9a4bb7zxgx/8YJqmMzMz73//+2+++eY777xzZmZmDTtco3Z53/ved/vtt1988cWvf/3r9+7de8cdd+zZs+d3f/d33/CGN1x55ZU33nhjdxr2UMRxHG8as30DakuuVioRpbN1W4qingqymGZn+Ng0hKFKKpRkJhMWDsNfBVASA5XQdSwWiF15mt6yb7FuX+LU5Y477qhWqx/72Mfe8IY33HLLLX/2Z382Pj7+iU984rWvfe2OHTve+973rnaHq4NLUdl63333jY6Oqmq1Wn3++ecfeOCBT33qUxdccIGfg3XjjTf697cVW6x/jdaaHG9DQ/2oltzEMaF+GagoZ7o4l80xUkcNR826uizPKwGqEDVqIJxzvLWgWPl4XfthTvolz0Sp2pJrEFpDhOXmIx/5SF9fn581MjIy8sADD3zgAx+48MIL77rrro9+9KO33377GRwh8cQTT3zlK19R1be//e2bN29O0/SOO+64/vrrzz//fGOMH8q4ZcuW5557rv1TjUbjs5/97KrO6VSEiG699dZVd2AolblSFnLQtNxbckmzOV/X4REzNWXSeXJOhdsaLGheaUJQojBMwh991Sesin/8x289/KMfrTtgenp63vKWt/j7rkC9Xv/MZz6TZdmb3/zm4eFhADfffHOj0dixY0e9Xvd1RhdeeOHhw4fXcKxVwCVN04mJCV+lnabp7/zO7+zfv9+P7PXPqOrk5OS2bduWHCCKhoaG1nBmJ5UT0KNCTKUtBE9AHMdxpWTSzFb6abifXEr1etzTo3EkLvMUKe/+UL6P4DmrGvHPF80aQt3A0ih/cfjCdlpyTrVabWRkZN3hUi6XiQrHDNZE4+NHsjRNkuypp57auXPnV77ylXe84x133313rVabnZ0loqeffnpsbMyzzFZ1rFXA5YorrvjQhz4EgJl/+7d/+9Of/vS99977zDPPXHTRRS95yUv++I//+Lbbbvvc5z734Q9/uPgIEZVKpVX1T1gvsdbGpTi43wprbRxFlDZlrl4qDzpjNbLS32uNldljSFM/QE19KbQKQ5nUAiRKLfe5YDv4vSrAK4feloOC4KebnlEjRoFqT89dd90lImmSvuIVP/1rv/Zrt9xyy4EDB66//vqXv/zlX/ziF/fu3ftbv/Vb3tlcrSe7OnD5FfHgwYNf+tKXxsbG7rjjjve+973333//F77whUceeeRNb3rTL/7iL950002r/I7rL0QolUtFPVkcx+VyGUTNpMlzC+7wc5RlFEUURagvyPwchW4coeQGnoVgiP3g1oIX0ybH58WtbDV5zviZNnhDCYOBtaZULn3961+/7777fv7nf953Xfi93/u9TZs2vf71r3/Zy172zne+cw0lPqvQLoXvvnPnzvvvv7+1iygyxnz+859PkmTtRcunLeFeA8hpa84xKUpxzMye3Bv19cfWZo2kfOSIiWoGSvMLEQsjWKG+Sg0sxGIkr0hTRUhxt1oZwtNugFzrhLAuEciGKfZLwHF2uxISIbLmkksu+drXvpamqZ/vHcfxxz/+8Waz2dPTs7bQy1ocaWNMwUYuDmmtXWvn0vURUlLF7Mzc888egBpVjePYGmMj60dFlisV299Lm4b0hRlVKywizqhCxKSMRkaNlBqJZk2TNeJmIi5LhFXYF6oBWLImIfTOpE7rhQ4fPLRlx+ZSuVSYFD9GiaKovQTMGHM6t2kt84zQhpJTpEueISm4cQBp4g4+c+iF58cNWaOU+lq9KErT1DEDSJJmrEyDvYkt9WaIj83SxLgeOrR4bEoXG5RmpmhDF0LyYv3tpvA1xWNDAYEQqg4Ni4qDI2q1ECOdfPbI5PjERZfsHhodAn58iRbyjYDX816sQxXjupzHGo8ejE+qH6s/88hT3OCSlJUEgI3CvY7jWEVYRBWNqWnNsr40a37rW3PNRYXGAiPSYe/5m99OQWkzb1vmrhXAklVk1JYNUAPHUPPUI/sHR4YvungXWduV3JW1SLenGE8sIgDrxKEXxp94rlSpKmvezwfOOT8Rt1wul8qlNE2ZJWom6XMTcI6EfT2ZTw+ThBiLIAy48tJuChZrkEHgzAhAogIYbe9PiIgiP1pt7oWpx5rJhZddUO6twOQsmTN9Uc6kbMjCkUI45QP7nj30xIHIlklMHMeUN6BUVcfsrRaASqWSNSZ2DkkmHJrlqhITOQKb0AMImk8jp0BUaE0jaT9w0Wwqf7hEVAlk1BiY5szio997dH5yHg7tkyY2qGxIuIQS1UyefvjJo4cmVMAszrlWF8W2++hU02aToEOS9S8uAL59ggqpM8gMMlImz19TQyjyiAYgUqJW2M4z/xkEUO/MdMwwbBWcxYu4G13qAAAgAElEQVRslA21JrRp6wPclMd+8NixI8fW1Oiju4SK9sYbgMtVWNaKrJk+/aOnFmYbcVyKDBGMihhjVCXLXNGEV0l6UzKNY/b//s3YX//F/OyETTPj7R0iG9oqqwKJwkURothfBhGBwoizjiOIIaMKKJSIoQqkPXE0OjL9ltvty16TmJrlyCJrxM5ZtdKRozYefeddsmPT9jGNNsalXlE2HlwEKgvuwBNPz03NlypVVVgi51yWpFEUlUqxc9zMUp8l7m0sxP/nvuqX/1InDzJRLN7REahyXMLwqIxtopFhDPabaiUuVWCDfhAREdHFhiwsyMwxnpq205M6P0+sJBIpSMkZGGtw0aXTv3BbfM3PLMYKwKoykSy5lgYAg9XKrot3jZ03Rhuk38Jy2YBwSd1TDz3ZnEtt5NNGBFCz2VQWa22pXHJpChClC2Pf/uH8Zz9RGX8sdhCOSGEp1lKcjI1Fu3f37Nqh/T3OwogYhc88+3ZBPiVEEN8n04frrHM0PblwYDwdfwGzs8YlkcACmaU0NvHLr7P//m1Hz7ugWYosd3C4cwgaAbDrRbuGtg1tlNGuHbLB4ALGvu8+Mj9dh9parUfhqx4NgZg5MgaqtJCOUOnYJz9a+vqfllSVYwE7I1kc9++5vOeqF2e9PQCDDIXgHpt8Lo2KioYLwiqxUzUUstOKiJUtlVh0bmbqoYfl0IEIagGrlEbUKEVDt/+nqetuWrRVU5DvaEk7D1Vly3tesqdvtO/sX7zTF1oxztaFoqokNLHv8KHnDqmIsVG1UknS1GUZEZXKZRPFqmIXmwOTz8R/+keL939DGw2yJVW4cqn64it7L74kGehV36Yw04iMksJl1rE4ptRJ5kRS332ZWEjJmziB4mKsjWOqVPNha8z1+dknHk6ffXaITUKqRH0oTf3M9fzLH2iWBmIXGXGLpcyoLUxcAqBAmfa8/EWlnlJHzLP7ZcPABaLz4zNP/mgfqYnimJkrlUqjsehjbHEcl+KypIl75HsDn/+jnmNZ4+mH4NiYanbp7p5rrigPjLABq4LFkiEnkmWSOskS5cyIkqgR35Kb/d95z7pW8tE6CEGtMbG1lbKJbCmThamj0/t+1PvC0YgxH9mISnT1S5L3/aeZsV0WXMksm1aCssBFZbBn99UXxeUY6K4q6BPLBoGLIJtrPPydH2kGY0wUxS7LKtVqmiTOuTS2vdWKTZLyP/xD5S8/D8yahSY/93xSrdhXvrL//PMRRQ6aOzvMjUQbTZNJJFBl3yOVcqqcb2zpwzLtWBERT2bwaSBVUGxtb9VEUex49uEf2ueeT51AUKJS8+I95Q9+8MB5uyLpiZSxDC5KNHze6M7LdoLOwWVdhZkt2f3f3Tc7PQOhOI58syZrIyICtB5j0/wC/uav+B++2pM1FbRw8BD31bbefFMSV8JeCIbINRo6XxcRo/AqBBAGI5+zRQBEDWAECi14DerZUCokagQmn+boCBxR3FdtDlQr40eyBx7K0mamUpI4275r8CO//9zoJstUkC7zYllSQw5y4dW7B0cHsXHWo26Hi++sceTw5JFHngNsYZjHUeScq1TLhDjSZt/ff3P+b/5Xb6NZYp2bniqNjpb37qW4ospKIBZJU240KEnh6cYamrtQ3pvOoyLXH4FEl/d7DwwphaC1TimpWCGwGiCLSDb11eYW577/o+ZCndWVJbZbL8JdHzk2tpkJsYAJSoEHroZAhH666qVXktkwFswGCAC4JD365CESgqiBMWqMGnZiAF5YdM00evi7x7782epcXevNhRcmMLapsncvShWBCqBZxvUFV59XjxWFiLKKqIAdRCCACkTBYVSa78Ycpo6oQFRFSNgwkwqDBawqouqUGZzCpcmiHD7KogPXXEWDg5YoUnYv7J/5+H/rm5kyOexaVW2iEOG6O7T/IAmdXTLM2qXr4aI6eXBCEgXIFDk68oVhVrQUH96ffOgjpUceS545mBw8rFu2DF53ncZlFYGyJgnP1bPGojqGSOjv72m2wurvuTLyHJLmT6mI7+CtEv4UFmER55RFmZkdOyeOWZiZAQjz7Oxsvb4wdtVPaW9/0ypJGn3/+9Ff3lt2SWrJKqL2aK/CMA7uP5g20h/PtV29dDtcksXk6P4jqtJRgayAEPXA2T/8g/jI0+DMMOOCXX2vflWmKuIgogtNnqtLmlnJiw79NCtxUPbWCKlAAibgN9XWvyIQaRvQKCqqLCKS6yHxuoZYiF0k4hYX5o5ODV11RVbrraotG23c98XyA3836MjH+5A32vRVKbGxh589nLc/63bpdrhMPH+k1XlwiRCpNP7qXvzgQd/4a37LWM+rXpkSOYOYQYuNbH5es0xFRATMEGERX4bjwaHilYaABeJEWJmVnd/A/iErOwiDOSxBYaEKe1BRiBCLcWIyF2VMzUZ9+tjIrgvqcZlVq9zIPvNpbbzgYtNB+SWFZTN9YGJhduFsXdHTki6GiyJdSCcPHfH8V+9VkMQx5mLJYrblxcPlP//fcdYoiWbWDl+3V6OI2RlRt7DQnJ+BMovT/N6ysCizsorCqxNlb0OosgZrRLyLJGEFCogIwgwWiIC9BST+X2EnwuzfraKOo8VmmjT6LtiRmdgp9Rx5Yf5Tv192DTFEakgNkyE1Rskoqejkwckf9+U+JeleuLDoxHOHogTQliUYC82VIyNV65rm7o9JfcKpMybqf/m15f4BgSpBGouL9TkSUXakAmEIK4sKeztVlVUchFVUczauCqtzyuzfDymQwRBRYeQKyWOvwIoy59aNsCiLqiizc2mSpc2oVjWC1GrPAw9uenKfqAjBKGIB54SpyNpjR45ytq7zys+MdC9cRGR2cq593jdAbLivUW1QKT7waPKN+1Wcguqbt8aXXcR+/U/TZH7OBJfYTw/3loc3Mvw99vhQ5RxAftHRYKx4faQBNx40xboTXCctPCm/fw7QESci6tlZSZKWqxWOjEBLyeKBT39yIFlkUiIqMbK87lCVNJPDzx7sfvOle+GSzKXZXFPJaKuDvwiEYUq0YP/iz2vsSoIsro5cc1VCyiqUpmZ2rpQpWIRZ83/b77dyuOseEOKERZRZhOG8pZKjh/OHLv/bsTrm/D0srCzi/PuDHiIWVmZmYjEAQ7lWNgIlxE8+Xv7WN3uhGSnUWJ/VJAgJAfMTU8zLh6t3l3QpXFRxeP+zxvp+7EtfAipPPzbxnX9OLRPZ+PzzafNoOZGSc1Rf0MSJtye84cGFqhAIEDwaERGoFIHaIiIXjI88iht8psJ28RRxFmFmYWHHnIk4YSfiRFiYRVlFhUVEWEUEUbnULJNAbdZc+Pu/Nc16RsJG46WKs7GYslvTmMezKF0KlzTNmrMNQeccO6NgUPp3fxu7lFkWTVTdc1Gq7FQ4SZrNphNmx35OuCoLWMR5DQBxEIY4EQdl8bZLAEaIvAi8Y81+JVJx6nEQFicFhMSPB/ZutF/b2LFjcayOxUEESqzwBrYTRFHJkVij/P3vxM8+1Z+qI4aEGiRSIgUxTRw4bLqbztulcMkaiWadsRYApFLWJv3zg7FmsYHdvNUMDYhjBTcai94UBfKu3CISzBRpOcAi6vXCMvHPOeckxN5c/s7wjAizd4BYPASF2btFKh5/opLv3CehyDpmkPGhRYNk7qtfnS9ny0BBRs3kgXHlrq4V6MrCEcX85Lyu1FXfkImeeoiPvFAiLqnp2XMpi0YsUZqkKauoAVRUoKTio2rQvHGh+j7rEPJRuLzE1cfmRaiYIy2AqC8NCZasJ9X5DnWsubnr7WhRZZ948t2/lUxeKkvimzaIGrIiWWYcPf5wr6Yp4o6vRoBk4pI0LnfvvJqu1C6KY4enCbKsxRtU9dhXvmS5oSILcZQN9ykLOW7WF9k5eGUQwvW5hxIitnlIJUyiD361sl9qGO0aKHePgzaSwvpRFUVwoNSvVhCfQ/DB32BWA/AT1UTEwBScB6tIjh7ue+q55V+aFEYpbSRn4wqvVboRLlma1WfnV1TKms5W9z3JpClAW7awtaoqLsuyVAvDU/zaIcosuXcjzOoYXPg1oixwHgTiHSVh9itM/nEJ3hCLuOD7KLOwy11x74QL/FLlnPj9+6SlXwvTBMqG4FSFAKVSlhz7q68t/24CJWPmj82dhSu8ZunGxShZaMTWaota0bq2BqkcmxZDTjF86ZWqBEjaTFR97VggPHjaCoBWXAQhuUh+PrQWz/tpI+EZUlFlCMgnGUOSSY3Ar3LkDWNVARepbFUBWDnkMAE1JhaXkTFE6jglFYYaMgypCKa//d2ac4jiTvaIYm56drNs71rOVDfCJWs2rbc3lr1UPjSeJs2IRWuVuLc/YSfiOM1EAn8faJka+a0NtG0jCNOhRTyJm/Iaeo8yqLdQpKC5BBPED7DxDBm/wCmr5woJQ/NWUn6lI5Coppk6Vl9sr2LzXZEiscjSCVqYx9BI+1ckAosszC/8uHs2nEi6ES7NRpPyll8dUn/0MQe1RsulcpNEmDVJJXM5v6nglcCTmHIQ5KRKFXh7Ntz1HCuq4GDxolBChQYKf4YgDfKjCNgnq0nDodHWBUehZAxnaWRNfgwoQUR7Gws9jfrM0HAEav+aliyYsySNy9E57XKqkjRSVSn657TrmLnHH62AHaEWVReVe0SSJFEVYvGuDnwfOfKdTQt9kDMo226tIg/hh5kSgelCyhTWq0DvDfsUVggLe0/Hx3VIizyA5G4XiFiJyBh1bI1VEZdlGhAEABCWicPYtmulxvAmbaZRqUurkLoPLgo0MsaS350CBImhtX0/JLUKlw7WImIRB+fg8zdt2iJ40yKt9QgqEjoS5g6ytDvJAAejRLRQMEBwpEVVPUObQuI67DF/J+W8CFUAoeSWiHxfKhVVIvE19QSAkoMHzVWyUvcxcmlmzOo6ep416T64AJKp+tJ2AHk/FaNQl87Pzw8KUgOqVI3L2GXCmTKrslckrQIzSKBUFoojp9v6EkUVJhHkCSkoU/CTfcMfbwEH0h1U4e1Zb+VIrqjER54DXFSLfmQAcsPIf6kcKL6fUDI+UVbIiguO//pn/jqvQboRLs65lS4WmZTVhd9+qVJxzJpmPtCPIkqmaiQE2nyYLtR/aLB8vc4IBq/k8TuPBg7YQeB6c/5RheQ7VMmZdX6pUg3ja/Lc4NLOzAJ4defdL8kRk8xMlw2tGIrkjJc91y3SjXDx1NdOUY0ExOJJLWSMCJNjOCER5FoiTFUkP4nVx29z+q1HUs7yJ80R42sAcp5DriSkGF7vrRgfJs7xVDwfAGdWyvRoqF3yaWdIm+pJXFOhBNvWfKj4+t2blT7jcNGixGaVpj5RW3mOQryJEK4+EUhFhTNPi5S8+KOwXYKKkJZXDF9MJL4/lKqwCREU/142nsWtSuKRESxgSGtp08J8BgJoAGBJ65bOSLT3zJY+k2aprOz8deky5KUbtQsZ46dJEeU+CoHIqDUuzLdTYTap4ywlZeNNVwgkxOMACBic6wyAwyIiwbZFbqjmSgR54ESlpa5QrEQeV3mRgL/37W5NBxrCFwmA9+2ENCSbFUJkenryU+1US2tod3vW5MzCpVAtqxKKLC394fmyLbGGjVGCClzmTCaZYyuBveJvcwiSAAjaJXjN/i2B0w8Ex4aDZoEqlIVDU90iMBNKAkDinSwfumn/UpQPuj+OTvD6kKECCIEJBMoMlWu93RyOO56cQbh0YEVPuZ94XCoRNUhCO2Xf40mMOkM6MCgTi5aQNBbjSg0i6phEVYWggampRchfPAI0aAsoCwrnRb2NnL9ZhDwUJJBeKA/yashSa975MIgABPW+8IrmRn4BVP0ER8DTEzKinrFNVrDielTq4ox0Ny5GNrIq2h6SIIUFabUSb9lFk0egzI1GaQTKbew4iF+6cgSwqhLntqsGBlQwO9rgEvAiOY1OmAI5gVX8RGrkNqv/ZOf6sWK+ogNYShCFMx4uqGzeDCVDK3ywFJ+Dy2okLlegS3zMcE1ZypfvSR95sMeh2WhWnPPeLHn2PQlpqPoBAJAqSAnB3RVP/SeF+GSk5HE8oKA3AAJhyQvIAgx06WlQCwoKUF5mrro06LbUshEFExRgghFDWzZbJV4W1SWiuNxJhekeOYNw6Vh6CvdkxVfbPoZyTzXX0a33q4JA/VdeNfEFW4bL0ia51C8iKk7ACiINyCBA4QeI5ME6z0rJI3KFGxwcHxFSZVET0om5zgmn1DJel59vgZW2DwBAEWRkgiOwggEVpEZhYgwNdbhL/pqIiC1HrLKO0yaO55yqKjO3t4A/qXSldqmWtM2L9uK/aN/28yeicsKJyzJDYBYShrDk7AWIEkselQUKh6jgNGlYpzQP9uekp+D8qLbsENW2EzlhpHWJDaKkhMIidoCDccFwERGd76lE1QE1SxOpRETU29d75u6Jc84Y4z0v/+tdbXSjG+FSrpUF6ttjd7w0U63Z2rC4epQmWaMhAmKGOAYDZBjkuXOFMvPLgLJP9ZCqKpNfbDyZUlq5RlUlFP5K7iy3LTwrxWC9UEgn+QYx3pIO7jNY4aBOfTs8YrK8+0JbrgmWjp9QBVHvQO+Z85d8/0Q/9UpErG01QDlF6UYXv1SJzXEaQ6blSmXHLiFLivqRSQQ2tYKBvOgDXBSJeWq3UxHmUAOgoZECCzN8YU9bHA/ASrYslr60wqZAgRUf8hcFKznAdwMSgkAdkBp76U23CEWyzJ1SRd/QgNKZGmZTjNIsULLaGM/Zg8spzvQFAKMjW0Z52T1TwIop33izslEy6dycEVeE6ZXha+IlL3CGeuPXg4aZ2aMkMDLzkmbJqSoI6UxqB0LHw+Nv6ht6C0gAATHgyBMuw38CMBHXBodf9nKBr25pEbH8FTK9Mc4YXLxSaUeM5hUTbadxIunGxQgGozs2Hzs8qawduCrZqPLSn54YGCnPvqCqmiaqxGHkkM8ki/poG/KUjyiUcwBpnqtuM1AAdJiBHUcND098McnnAQQQGCEfrAkbh40EVNm9Z6HaW+LOKJ1CG9qI+8truGCrEr8YxXGM/Dd86p/txsUIQKk30shgqb1LgCqnpYp72bVWlBTJ7ByUnWTMDqEojOFViPM1qqHsxxcEefXii5F8WijPZRcPcbyNlU7watukCQ32EkgADqYuZSBHSKnU/6pX2ZWICwrt3zRoY7N8YMV6SWHbFouRc25V2qVL4RKVbVwr6TLfj1jFYOiVNzZNbFWSel04Y3HKaSC+sLB4lIQOT3lR2ZJ61iUuOooied9dLGwr4uAEm1cwgTNMwcUSRUbIQBng1DSHxrZf9+qYzHKfXEkv2HNR/uhMJaULY8Ajxhu/xphTMhK6Ey7+vDfv3CLLOgF5q3Lop65MLrvGqJLCNRNio8wirmjvI74KlUPBUe4jkV+vFFCiYv5M+0QatG25n51vdCKshIggkbdaUITmfIEbkYVNLXb8m5+jcq+ykvppJkR5tCaqRJVaudVObT2kCFn7PzxKCkx4osiq8nrdCBcf0d20dcyWYv+rbW1EACXGnPcLv9S0JgKlcwsm9bXyucOj7MSvO058A7qgT/xET6OG/CBxGILvQJlvJ7Fnc0jR0pNC4Qr53FA+TYABB2IEAsNcT8+O638W0oJlABopILXhGkzx61+f+1KM/m2PtRR0Iv/qqpyjrjR1AQBiuXeov/7CsSUhMFIACurZ86LJXZdvffZhK5KlzSiCLOlOqNSROl4noWLp6aSwEJMqwPnUaQY5EEOZDGBmYlzxprdVxjZz2E3bZ1XF6PbdO9f3VItAXLH0FFUKhY5ZbZiuG7WLF1EdO3/zcncaAIlypXr1+3/9aN8QLIlLXV7Wri7v+bP+WKF8OfOqwQDWbwLrSAVgqPoFKJi3SI3NiDLSZGz7eTe/1hldHk0gooHRgUpv5cSHX5V4TLROnYiImNkf1GuUNSCme+FCRLWRWt/YgIZ7YwDy0zsIyFTc1h3m2usTEztwlrGwBn5Ca+jh+m6tfSqMwChIQExUzHFUgMljRRnKBFYVQhaXXnn7f3blspoV7g2RjmwbhT0DujD3g9ox0Y6SnwTt4n8K1lpjaMtFW1PKvA8bMsFqyLdhp9KLfumdcxe9yKoJ0SbkHExg3eHiHWO/c+8osfe9vRsVkpXw+W6BYRifVWgq+l51Q+3yqy3FxEvsZy+Vvmr/5sHjZxhWJ+3+cKFOvL1SKJVT9IOWSzfCpRAi6hvu6x3tYcPLfUsFFnr6dv7Sf5iuDVdgQo10/hL73/dqN8LxNqHA0Oa2YZ7+QD6MK2ENAgMZITPeqYa55MoXv/ndRFgy1TE3gRjZ9j27qGTMetyL9vCJMabIChljvB2zhrRiu3Q1XADA0KUv2gMSzmtD2lM7MUrDl7xk+9vfXa/0qTHFrQ1ZG1r1dpLgCkEpNxi9B0Sq5D0gk8FkIAekBEcqisRWFvtHr3nrr8jg8Mp0O2h1pLdnuHddsILcK6acg9NuHp0+VrAB4EIwvfHotjGhnH/QegWG4WBHr/tZvvFnkygSyrssnzxMsvLWEe2VjtBL+PlCWgoJoioER5RHb+HCfAozVx7d+1/+a/8lL3JkW95QWyzJlOjSqy83kcE6zfIolpiQ/8itlsIzOs1eiV0PF1UxuvPSC8o93nFYYnICcAYZot1ve1f/K69nYyOYUDmghtQQjJ7GBhho2Hw9CStxASNV37COAVZlUJ4bAgAuVW5429uw5/LMgCTwegurytP7xs7fSmXSZZy6NUuBFb/6FCgpDFufZVzz/rseLr6tW8XsvOx8GAOQksldWWIjBDGWDGqbb//18k3/NqYoM0iNZhbOwPlwbWtNPyUpRkkjhIODt+Wh6o0VzTPPEjp5eM+IQNYQFnpGz3/nr5RueI2VslWxUJM3w/Lmi5JWR2pbdu8gYwzs2gzPQjwyOG+0WkTePGiWXM08ZLc26X64BOnfMrj5/E0neIOWajtv++XFN/67KOoRIiUVg1X/cJfbosvNF0Bb+UgVwIMrBJ2VtOe8Pf/xA5tvusVw2Wobsxc+WQAl4TKdt2e3iU8LJV5C5Uyb24wcFsv959OUbh9/FbJEAEAi+vgDP0ymE9I8EL/kEkhmVUkW/t9fH/qDj/Vmi2J92548CL9KWX51c0K/ghDqa3MXSYhY7aKJZgeGXvvf/5C2b1LAKOolVFzrLCMhgSQR777m0qEtI3oaXaKKG+cN2ILI0v7q2oIrJ5CNBBcAWbP52Ld+IIsgbcUlg5CQwoDqRvSRh56553/g0JMVtxwuhONjR/PX/X47qoACXHxSSyEwAglJIpg5U+376euuese7o5Et5YxUNYkRSWebBbE0dsGWbZfsIAOsFLU71QuTx/ixzCEK37PNLVrzUTqk6+GCJXCBoj4/8+x3nuR5/9ySC2FUjIJJAZPOHZ36/Odmv/7VKK1DlUmtGr+rZRdPVvirOHjxbg2hl5z0T0LEqhnUWdKRsW1vevv5r/k5tVaNjUXYgAmRp20FO0hgzeDWkQuuuiiPCa+97U97OA65Pet1TLvDvI5YwcaAS4cIZo9OPfPPTyDr7MjV/iASgGTm6Yf3/8+7K08+WnKZakADtVBhPAOy+NQJrkUI8JtQj6ggJsPMXOut/Kufeelb3+P6hwkGUFmqNJRUSUDKyoObRy68+hK1TDAgrAou7ctNoVoKvdLuBK02z3zqsgHhAghLffLYvn96NKZKvn5gqUkJAWUWsdMel8w9+uA3P3PPwKHxQSeKLAYL4PyHfDT/FMQHdgFkHjQUz9pK74tfevVt7zabt2pUjcUYzgDtmGOgKmpULFcHa5ddc4WWASj595zyTS3o+8v5tlgaheswYtZXNiRc4BFzbO6Z7z5BiVUp4NL6Lu33jMhw2px5/Huzf/vX9e9+X5v1CFkkIiQAqAMuGtQUKdqXLqOkoIxM05aioe1Dr75x8F+/prxtU5nLBhEMcuQtgYsCAAu5vh0jOy6/MC5FxjtY6uFyqje1/TYxsy8Xao/CtfvMZ66Hw0aFCwARqc/OHfjBfp4RVUOU/9QAdMAFIAUbihw3pg9N/uCfku99m/Y9xnMzzmVta5MW//M+s3fDg/lS7Y3GtprLr6i+5LrRy19sevvIqVGynn5uaEW4gFQiHjhvdNdlF7JVQ+QHAwcHf5VwafeGvJ/c7kKHA57JlpkrRIXP6PHWUxRQpI3mvh8+4SYSwBYxUywxUJZ+JHS9U5MmycEDE4/+YOr5Jxcmx93sTJQ6m7ERJYX/+S7WemXTpvKWLTsvvWRk92WlsfOUDMMENwytwy03exQwhjjm0cu27zhvW8g3rbWW1euPsOdcCo5ckUFc075XIRscLgAULs0OPX1gev8UxJKeEC7tn1Zlo2RJUiU1Rtmqg3Dqi4O8QQBrEFkbZYaMEcMMJTKW1CidaP8KwCoq5uKrLu0ZrikUpzdbvB0fnpZgjPGr0tm8X4Fh1W4fbRi4IEeMQAnTR6bHH3vezTuAyJeCnOSzBBgBlCTwWQB0hGVIiYr6MSNkDIjUYllIps3dBhMjxsDWoZ0X7Yx7KksctlO+tL6eud0VwtJkkPXzEEROM66/KqGCDr6B4eL/FGRpenj/89MHpq2zJCfxd3zbSVIRkpXvohK0AikDAGVK7MsUvZXasfa0XzQzFG/dvXVkyyaY1tK4iu+keYs8onYotDs+y/kJqzjAaQgVJUmFaX32T+J0JV+VVJVAC3Nzzzz+TDrVtM5AlcgUkT4vhbXBpAQ/qfc4e24R6BQgb8NSzuFHOwwMmNiWorHzNm26cLuJDBVm7ClcxQ4QZFnmmU3ehOq4EWc6FncCIeecr03qCPucncOvi4RzblHVmEUa84uH9x1eOFo3ISu4JAsAQPN03+kUJAuJkhLAEW/bvX3kvC1xpUR2dUuDv/3eEPE/XWtteziuY61ZnmRe8/mvVsg5h9xT76BHnOVTWbMsgQugoTyZhMHn12MAAAH/SURBVGVhrn708NTc+DSaWryBPHjIt9jAqTPZgkbxjYdUYcARVwaqo1vG+rYOVyoVCvVKqz7/9pYI7Yll5JmgLmmHScxcLJOFatkQKCmkEy7Lzj1ppkePTM4dOZbMNKmpUN/CVD1LyVJ0KjfY1xyqqlKGSONKqW94YHDrcO9Qv41C8CUgZU1waVcqWAoX51wUdcUMEt8XUtrd+p88uPgCNVVV0bmp2anDRxen59HMDFRYDOIQE6blHw4xNQolqqZSK9e29Q9tG67UqgIRIAIZMnmtyhrhUqxBHc+0K5VuuClhyWw3xbvhtM6EBOMMgKqwOpY0cc1mozFbz+pNt5AghXBoGGOtjSJrynGpt1KqlXsGeqNqFJWsMZGhJaBar4tV5IP8w8LzYGZv9trjtEg6m0Lev0cbZ+InFS7Hk3YmACMsVV7aLgURYM7MlSniKB4ZaDNmCzJll8Al6uDX/EvDCpZ+6w57ckW20bpLkSDsSP10EG+7Qaj9t/UvECs/dikKDQH4uH4B344YfzfcHWo/v3Ny9qX4uYpI0eJWVf3CVOj+LrlBS/rDnJMflxQpIR/OKPgJBWuuS+7RBua7/ERKB6+le4Di5RxczskqpIus7nPS/XIOLudkFXIOLudkFXIOLudkFXIOLudkFXIOLudkFXIOLudkFXIOLudkFfL/AZmLbjOIDRxgAAAAAElFTkSuQmCC;" parent="7" vertex="1">
                    <mxGeometry x="470" y="70" width="186" height="384" as="geometry"/>
                </mxCell>
                <mxCell id="9" value="Please enter a number:" style="text;html=1;align=left;verticalAlign=middle;resizable=0;points=[];autosize=1;strokeColor=none;fillColor=none;fontSize=24;fontColor=#000000;" parent="1" vertex="1">
                    <mxGeometry x="71" y="200" width="270" height="40" as="geometry"/>
                </mxCell>
                <mxCell id="10" value="Temperature:" style="text;html=1;align=left;verticalAlign=middle;resizable=0;points=[];autosize=1;strokeColor=none;fillColor=none;fontSize=24;fontColor=#000000;" parent="1" vertex="1">
                    <mxGeometry x="71" y="273" width="160" height="40" as="geometry"/>
                </mxCell>
                <mxCell id="11" value="°F" style="text;html=1;align=left;verticalAlign=middle;resizable=0;points=[];autosize=1;strokeColor=none;fillColor=none;fontSize=24;fontColor=#000000;" parent="1" vertex="1">
                    <mxGeometry x="364" y="274" width="50" height="40" as="geometry"/>
                </mxCell>
                <mxCell id="15" value="The Temperature is:&amp;nbsp; 15.56&lt;span style=&quot;text-align: left;&quot;&gt;°C&lt;/span&gt;" style="text;html=1;align=center;verticalAlign=middle;resizable=0;points=[];autosize=1;strokeColor=none;fillColor=none;fontSize=24;fontFamily=Helvetica;fontColor=#000000;" parent="1" vertex="1">
                    <mxGeometry x="49" y="432" width="340" height="40" as="geometry"/>
                </mxCell>
            </root>
        </mxGraphModel>
    </diagram>
</mxfile>